<?xml version="1.0" encoding="utf-8"?>
<!-- Generator: Adobe Illustrator 27.9.0, SVG Export Plug-In . SVG Version: 6.00 Build 0)  -->
<svg version="1.1" id="Layer_1" xmlns="http://www.w3.org/2000/svg" xmlns:xlink="http://www.w3.org/1999/xlink" x="0px" y="0px"
	 viewBox="0 0 227.7 104.9" style="enable-background:new 0 0 227.7 104.9;" xml:space="preserve">
<style type="text/css">
	.st0{fill:#FFFFFF;}
	.st1{fill:#6091A0;}
	.st2{fill:#1C3F47;}
</style>
<g id="jOv6T4.tif">
	<path class="st0" d="M133.8,53.1c0.6-0.1,0.8-0.4,1-0.9c1.2-4.3,1.5-8.6,1-13c-0.1-1-0.2-2-0.4-3.1c0.1,0,0.1,0,0.2,0
		c0.2,1.2,0.5,2.3,0.6,3.5c0.6,4.1,0.4,8.2-0.5,12.3c0,0.2,0,0.4,0,0.7c0.2,1.6-0.2,3-1.2,4.3c-0.2,0.3-0.4,0.7-0.5,1.1
		c-0.2,1.3-0.9,2.5-1.9,3.4c-0.2,0.2-0.4,0.4-0.4,0.7c-0.5,1.4-1.3,2.6-2.7,3.4c-0.1,0.1-0.2,0.1-0.3,0.2c-0.4,0.6-0.8,1.2-1.2,1.9
		c0.8,0.2,1.5,0.5,2.3,0.8c1.4,0.5,2.4,1.4,2.7,2.8c0.1,0.8-0.1,1.4-0.6,2c-0.9,0.9-1.6,1.8-2.1,2.9c1.4,0.7,2.8,1.4,4.2,2.2
		c0.6,0.3,1.2,0.7,1.8,1.1c0.2,0.1,0.3,0.3,0.4,0.5c-0.2,0.1-0.3,0.2-0.5,0.3c-1.8,0.7-3.6,1.4-5.4,2.2c-0.3,0.1-0.4,0.3-0.4,0.7
		c0,1.8-0.1,3.5-0.6,5.2c-0.1,0.5-0.3,0.6-0.7,0.3c-2-1.3-4.2-2.2-6.5-3c-0.5-0.2-1-0.5-1.4-0.9c-0.6-0.6-0.5-1.2-0.2-2
		c0.5-1.3,0.9-2.7,1.4-4c0.2-0.5,0-0.7-0.6-0.8c-5.5-1.3-11.1-1.8-16.8-1.6c-4,0.1-7.9,0.7-11.8,1.6c-0.4,0.1-0.6,0.3-0.5,0.7
		c0.4,1.3,0.8,2.6,1.3,3.8c0.6,1.5,0.2,2.6-1.5,3.2c-1.6,0.6-3.2,1.3-4.7,2c-0.5,0.2-0.9,0.5-1.4,0.8c-0.5,0.3-0.7,0.3-0.8-0.3
		c-0.3-1.1-0.5-2.1-0.7-3.2c-0.1-0.6-0.1-1.3-0.2-1.9c0-0.2-0.2-0.5-0.4-0.6c-1.7-0.9-3.6-1.6-5.5-2.1c-0.2-0.1-0.4-0.2-0.6-0.3
		c0.1-0.2,0.2-0.3,0.4-0.5c1.7-1.3,3.6-2.3,5.6-3.2c0.1-0.1,0.3-0.1,0.5-0.3c-0.7-0.9-1.3-1.8-2-2.6c-1.2-1.4-1.2-2.9,0.3-4.2
		c0.5-0.4,1.1-0.7,1.6-0.9c0.5-0.2,1-0.4,1.5-0.5c-0.4-0.7-0.8-1.3-1.3-2c-0.1-0.1-0.2-0.2-0.3-0.3c-1.4-0.8-2.3-2-2.7-3.5
		c-0.1-0.2-0.2-0.4-0.4-0.6c-1.1-1-1.8-2.2-2-3.6c-0.1-0.3-0.2-0.6-0.4-0.9c-0.9-1.1-1.2-2.3-1.3-3.7c-0.1-1.2-0.3-2.3-0.4-3.5
		c-0.7-4.4-0.5-8.8,0.5-13.1c0-0.2,0.1-0.3,0.2-0.4c-0.1,0.5-0.1,0.9-0.2,1.4c-0.6,3.9-0.6,7.7,0.1,11.6c0.2,1,0.5,2,0.6,2.9
		c0.1,0.6,0.5,0.9,1.2,1c-0.9-3.1-1.2-6.3-1.2-9.5c0.1-3.2,0.5-6.3,1.6-9.4c-1.1,4.9-1.5,9.8-0.5,14.7c0.3-0.8,0.6-1.6,1.2-2.3
		c0.1-0.1,0.1-0.4,0.1-0.7c-0.2-4.3,0.4-8.4,1.8-12.4c0.2-0.6,0.5-1.2,0.8-1.8c-0.3,1-0.6,2-0.8,3c-1,3.7-1.3,7.5-0.9,11.3
		c0,0.2,0.1,0.3,0.2,0.4c0.4,0.4,0.9,0.8,1.4,1.2c-0.4-4.3-0.1-8.5,1.3-12.5c-0.6,2.7-1,5.4-0.9,8.2c0,2.8,0.4,5.5,1.3,8.2
		c0.4-0.3,0.6-0.5,0.5-1c-1-4.3-1-8.6,0.1-12.8c0-0.2,0.1-0.3,0.2-0.6c-0.1,1.6-0.3,3.2-0.4,4.8c-0.2,2.7,0.2,5.4,0.8,8
		c0,0.1,0.2,0.3,0.3,0.4c0.7,0.7,1.2,1.5,1.3,2.5c0,0.2,0.2,0.5,0.3,0.5c2.4,0.7,4.7,1.5,7.1,2.2c0.1,0,0.1,0,0.4,0.1
		c-3.1-2.6-6.1-5.1-9-7.5c0,0,0,0,0.1-0.1c3.4,1.8,6.9,3.7,10.3,5.6l0.1-0.1c-2.3-2.9-4.6-5.9-6.9-8.8c0,0,0.1-0.1,0.1-0.1
		c2.4,2.1,4.9,4.1,7.5,6.3c0-0.8,0.2-1.6-0.2-2.3c-1.1-2.2-2.2-4.5-3.2-6.7c0,0,0-0.1,0-0.2c1.1,1.4,2.2,2.8,3.3,4.3
		c0.1-1.2,0.1-2.2,0.3-3.2c0.2-1,0.7-2,1-2.8c0.2-0.1,0.3-0.1,0.4-0.2c0.6-0.7,1.1-1.4,1.7-2c0.5-0.5,0.7-1.1,0.6-1.8
		c-0.1-1.5-0.2-3-0.2-4.4c0-2.6,0.8-5,1.5-7.5c0.1-0.4,0.2-0.7-0.2-1.1c-0.4-0.4-0.4-0.9-0.3-1.4c0.1-0.3,0.2-0.6,0.3-0.9
		s0.2-0.5-0.1-0.8c-0.5-0.5,0.3-2,1.1-2.2c0.8-0.1,1.7-0.1,2.5-0.1c1,0,2,0,3,0.1c1.1,0.1,1.7,1.5,1.1,2.4c-0.1,0.1-0.1,0.3,0,0.4
		c0.1,0.3,0.2,0.7,0.3,1c0.1,0.6,0.1,1.1-0.4,1.5c-0.3,0.3-0.3,0.5-0.2,0.9c0.5,2,1.2,4,1.4,6.1c0.2,1.8,0.1,3.7,0,5.6
		c-0.1,0.9,0.1,1.7,0.8,2.4c0.6,0.6,1.2,1.4,1.8,2.1c0.1-0.1,0.2-0.1,0.2-0.1c0.1,0.3,0.2,0.7,0.4,1c0.6,1.3,0.8,2.8,0.8,4.2
		c0,0.3,0,0.6,0.1,0.9c1.1-1.5,2.3-2.9,3.4-4.4c0,0,0.1,0,0.1,0c-0.5,1-1,2.1-1.5,3.2c-0.6,1.3-1.2,2.6-1.9,3.9
		c-0.4,0.7-0.2,1.4-0.3,2.2c2.6-2.2,5.1-4.3,7.6-6.4c0,0,0.1,0.1,0.1,0.1c-2.3,2.9-4.6,5.9-6.9,8.8c0,0,0.1,0.1,0.1,0.1
		c3.4-1.8,6.8-3.7,10.3-5.5c0,0,0.1,0.1,0.1,0.1c-2.9,2.5-5.9,4.9-8.8,7.4l0.1,0.1c1.2-0.3,2.3-0.7,3.5-1c1.3-0.4,2.6-0.8,3.8-1.2
		c0.2-0.1,0.4-0.3,0.5-0.5c0.2-0.6,0.3-1.2,0.7-1.7c0.8-1,1-2.1,1.2-3.3c0.7-3.5,0.5-7.1,0-10.7c0.1,0.4,0.2,0.8,0.3,1.2
		s0.2,0.8,0.3,1.2c0.6,3.7,0.6,7.3-0.3,11c-0.1,0.4-0.1,0.4,0.6,1c0.9-2.7,1.3-5.5,1.3-8.2c0-2.8-0.4-5.5-0.9-8.2
		c1.5,4.3,1.8,8.7,1.2,13.3c0.4-0.5,0.8-1.1,1.2-1.4c0.6-0.4,0.8-0.9,0.8-1.6c0.2-2.7,0.1-5.3-0.4-8c-0.4-1.8-0.9-3.6-1.3-5.4
		c-0.1-0.2-0.1-0.4-0.2-0.6c0.1,0,0.1,0,0.1,0c0.4,1.1,0.8,2.2,1.2,3.3c1,3.3,1.5,6.7,1.5,10.1c0,1-0.2,2,0.7,2.7
		c0.2,0.1,0.2,0.4,0.4,0.6c0.8-4.7,0.4-9.4-0.6-14C135.3,40.5,135.5,46.8,133.8,53.1L133.8,53.1z M90.6,81.7c-0.9,0.7-2,0.7-2.6,0.1
		c-0.8-0.7-0.9-1.8-0.2-2.5c0.4-0.5,1-0.9,1.6-1.1c4.4-1.5,8.9-2.2,13.6-2.5c3.8-0.3,7.7-0.1,11.5,0.3c3.6,0.4,7.2,1.1,10.6,2.3
		c0.6,0.2,1.2,0.6,1.6,1c0.7,0.7,0.6,1.9-0.3,2.6c-0.7,0.6-1.9,0.5-2.7-0.2c1,0.1,1.9,0.4,2.6-0.5c-1.4,0.4-1.6,0.4-2.1,0
		c1.4-0.1,1.7-0.2,1.9-0.8c-0.4,0-0.8,0.1-1.3,0.1c0-0.1,0-0.1,0-0.2c0.5-0.1,1.1-0.1,1.2-0.7c-0.3,0.1-0.6,0.1-0.9,0.1
		c0,0,0-0.1,0-0.1c0.2-0.1,0.3-0.3,0.7-0.5c-0.9-0.3-1.8-0.6-2.6-0.9c0,0.2,0,0.3,0.1,0.3c-0.2,0.1-0.4,0.1-0.8,0.2
		c0.3,0.2,0.6,0.3,0.8,0.4c-0.4,0.1-0.6,0.2-0.9,0.3c0.3,0.2,0.5,0.3,0.8,0.4c-0.4,0.1-0.7,0.2-1.1,0.4c0.4,0.2,0.6,0.3,0.9,0.5
		c-0.4,0.1-0.7,0.2-1,0.2c0.4,0.2,0.6,0.3,0.9,0.4c-0.4,0.1-0.8,0.1-1,0.2c0.8,0.3,1.6,0.6,2.5,0.9c0.3,0.1,0.7,0.3,1,0.3
		c0.4,0,0.9-0.1,1.2-0.3c0.8-0.6,1.2-1.5,1.1-2.4c-0.2-1.2-1.1-2-2.3-2.5c-0.7-0.3-1.4-0.5-2-0.7c1.9,0.1,3.6,0.7,4.7,2.4
		c0-0.7-0.1-0.9-1.9-2.4c0,0,0.1-0.1,0.1-0.1c0.6,0.3,1.2,0.7,1.9,1.1c0.2-0.7-0.6-0.9-0.8-1.4c0.3,0.2,0.7,0.3,1,0.5
		c0.4-0.6-0.3-0.7-0.5-1.1c0.3,0.1,0.5,0.2,0.7,0.2c0.4-0.4,0.1-0.7-0.2-1.1c0.3,0.1,0.4,0.1,0.8,0.2c-0.1-0.4-0.2-0.7-0.3-1
		c0.1,0,0.3,0.1,0.4,0.1c0.6-0.7-0.3-0.9-0.6-1.4c0.4,0.2,0.8,0.4,1.1,0.6c0.5-0.4,0.4-0.8,0-1.1c-0.4-0.4-0.8-0.7-1.3-1.1
		c0.8,0.2,1.4,0.7,2,1.3c0.1-0.2,0.2-0.5,0.1-0.6c-0.5-0.5-1-1-1.5-1.4c-0.3-0.2-0.7-0.3-1-0.5c0-0.1,0.1-0.1,0.1-0.2
		c0.6,0.2,1.2,0.4,1.7,0.8s0.9,0.8,1.4,1.2c0.1-0.2,0.1-0.3,0-0.5c-0.4-0.7-1.1-1.2-1.8-1.5c-0.7-0.3-1.4-0.6-2.1-0.8
		c1.9,0.2,3.6,0.8,4.7,2.4c-0.2-1.1-0.9-1.8-1.9-2.2c-0.5-0.2-1.1-0.4-1.6-0.6c-5.3-1.7-10.8-2.6-16.4-3c-7.9-0.5-15.7,0.1-23.3,2.2
		c-1.3,0.4-2.7,0.8-3.9,1.2c-1.2,0.4-2,1.4-2,2.3c1.1-1.6,2.8-2.2,4.7-2.5c-0.3,0.2-0.7,0.3-1.1,0.4c-0.4,0.1-0.8,0.3-1.1,0.5
		C84.5,70,84,70.5,83.4,71c-0.1,0.1-0.1,0.3-0.1,0.5c1.8-1.5,2.4-1.8,3.3-1.7c-1.1,0.4-2,0.9-2.6,1.8c-0.2,0.3-0.2,0.5,0.1,0.7
		c0.5-0.6,1.1-1.1,1.9-1.2c-0.4,0.4-0.9,0.8-1.3,1.2c-0.4,0.4-0.3,0.7,0.1,1c0.3-0.2,0.6-0.3,1-0.5c-0.2,0.5-1.2,0.7-0.5,1.4
		c0.2-0.1,0.3-0.1,0.7-0.2c-0.4,0.4-0.7,0.6-0.3,1c0.2,0,0.3-0.1,0.5-0.1c-0.4,0.3-0.5,0.7-0.1,1.1c0.2-0.1,0.4-0.2,0.7-0.2
		c-0.2,0.4-0.8,0.5-0.5,1.1c0.3-0.2,0.7-0.3,1.1-0.5c-0.3,0.6-1.1,0.8-0.9,1.5c0.7-0.4,1.3-0.7,1.9-1.1l0.1,0.1
		c-1.7,1.2-2,1.6-1.9,2.3c1.5-1.7,3.3-2.6,4.6-2.3c-0.8,0.3-1.7,0.5-2.5,0.9c-1.7,0.8-2.2,2.3-1.4,3.9c0.5,0.9,1.3,1.3,2.4,1
		c0.2-0.1,0.4-0.2,0.6-0.2c0.8-0.3,1.6-0.6,2.4-0.8c-0.3-0.1-0.6-0.1-1.1-0.2c0.3-0.2,0.6-0.2,0.9-0.4c-0.4-0.1-0.7-0.2-1.1-0.2
		c0.3-0.2,0.6-0.3,0.8-0.4c0-0.1,0-0.1,0-0.2c-0.3-0.1-0.6-0.2-1-0.3c0.3-0.1,0.5-0.2,0.8-0.4c-0.3-0.1-0.6-0.2-1-0.3
		c0.3-0.1,0.5-0.2,0.8-0.4c-0.4-0.1-0.6-0.1-0.8-0.2c0-0.1,0.1-0.2,0.1-0.4c-0.9,0.3-1.7,0.6-2.7,0.9c0.3,0.2,0.5,0.4,0.7,0.5
		c0,0,0,0.1,0,0.1c-0.3-0.1-0.6-0.1-0.9-0.2c0.1,0.6,0.8,0.6,1.2,0.8c0,0.1,0,0.1,0,0.2c-0.5-0.1-0.9-0.1-1.4-0.2
		c0.4,0.7,1.2,0.8,2.1,0.8c-0.8,0.4-1.4,0.2-2.2-0.1C88.8,82,89.7,81.7,90.6,81.7L90.6,81.7z M103.5,64.8c0-0.3,0-0.5,0-0.7
		c0-4.5,0-8.9,0-13.4c0-3.2,0.2-6.5,1.2-9.6c0.1-0.4,0.2-0.8,0.2-1.1c0-0.3-0.2-0.8-0.4-0.9c-0.2-0.1-0.7,0.1-0.9,0.3
		c-1,0.9-1.7,2-2.1,3.3c-0.4,1.4-0.5,2.8-0.5,4.3c0,5.8,0.1,11.7,0.1,17.5c0,0.2,0,0.3,0,0.5C102,64.9,102.7,64.9,103.5,64.8
		L103.5,64.8z M121.7,83.7C121.7,83.7,121.7,83.8,121.7,83.7c0.7,0.5,1.4,0.9,2.2,1.3c0,0.1-0.1,0.1-0.1,0.2c-1-0.4-1.9-0.8-2.9-1.2
		c0.3,0.6,0.8,0.8,1.4,1.1c1.6,0.7,3.2,1.3,4.8,2c0.6,0.3,1.1,0.6,1.7,1c0.4-1.7,0.5-3.4,0.4-5.1c0-0.5,0.2-0.8,0.6-1
		c1.6-0.7,3.2-1.4,4.9-2.1c0.1-0.1,0.2-0.1,0.5-0.2c-1.7-0.9-3.2-1.8-4.8-2.6c0,0-0.1,0.1-0.1,0.1c0.9,0.5,1.7,1.1,2.6,1.6
		c0,0-0.1,0.1-0.1,0.1c-1-0.4-2-0.9-3-1.4c0,0,0,0.1-0.1,0.1l0.9,0.7c0,0,0,0.1-0.1,0.1c-0.5-0.2-1-0.4-1.5-0.6c0,0,0,0,0,0.1
		c0.3,0.2,0.6,0.4,0.9,0.6c0,0,0,0.1-0.1,0.1c-0.4-0.1-0.7-0.2-1.2-0.3c0.2,0.2,0.3,0.4,0.5,0.6h-0.7c0.1,0.2,0.2,0.3,0.2,0.3
		c-0.2,0.3-0.4,0.5-0.5,0.7c-0.2,0.5-0.3,1-0.5,1.6c-0.6,1.7-2,2.2-3.8,1.5c-0.4-0.2-0.8-0.3-1.2-0.5c-0.1,0-0.1,0-0.2,0
		c0.1,0.1,0.1,0.2,0.1,0.3c-0.1,0-0.2,0.1-0.4,0.1c0.4,0.3,0.8,0.5,1.2,0.7c0,0,0,0.1,0,0.1c-0.4-0.1-0.8-0.2-1.2-0.3
		c0,0,0,0.1-0.1,0.1l1.6,0.8c0,0,0,0.1-0.1,0.1C123.1,84.1,122.4,83.9,121.7,83.7L121.7,83.7z M79.1,79.7c0.3,0.1,0.4,0.2,0.5,0.2
		c1.6,0.7,3.3,1.4,4.9,2c0.4,0.2,0.5,0.4,0.5,0.8c0,0.6,0,1.2,0.1,1.7c0.1,1.1,0.3,2.2,0.5,3.3c1.2-0.6,2.2-1.2,3.3-1.7
		c1-0.4,2-0.8,3-1.2c0.6-0.2,1.2-0.4,1.4-1.2c-0.9,0.6-1.8,1-2.9,1.2c0.8-0.4,1.5-0.8,2.2-1.2c0,0,0-0.1-0.1-0.1
		c-0.7,0.2-1.3,0.4-2,0.6c0,0,0-0.1,0-0.1c0.6-0.3,1.1-0.6,1.6-0.8c0,0,0-0.1,0-0.1c-0.4,0.1-0.8,0.3-1.3,0.4c0,0,0-0.1-0.1-0.1
		c0.3-0.2,0.7-0.4,1.1-0.7c-0.2-0.1-0.3-0.1-0.5-0.2c0.2-0.1,0.3-0.2,0.4-0.2c0,0-0.1-0.1-0.1-0.1c-0.5,0.2-1.1,0.5-1.6,0.7
		c-1.4,0.6-2.7,0.2-3.4-1.1c-0.3-0.6-0.5-1.3-0.8-1.9c-0.1-0.3-0.3-0.5-0.5-0.8c0,0,0.1-0.1,0.1-0.2c-0.2,0-0.4,0-0.7-0.1
		c0.2-0.2,0.3-0.3,0.6-0.6c-0.5,0.1-0.8,0.2-1.2,0.3c0,0,0-0.1-0.1-0.1c0.3-0.2,0.6-0.4,0.8-0.6c0,0,0,0,0-0.1
		c-0.5,0.2-1.1,0.4-1.6,0.6c0,0-0.1-0.1-0.1-0.1c0.3-0.2,0.7-0.5,1-0.8c0,0,0-0.1-0.1-0.1c-1,0.5-2,0.9-3,1.4c0,0-0.1-0.1-0.1-0.1
		c0.9-0.6,1.8-1.2,2.7-1.7c0,0-0.1-0.1-0.1-0.1C82.4,77.8,80.8,78.7,79.1,79.7L79.1,79.7z M133.8,50.2c-0.3-0.8-0.4-1.7-0.8-2.5
		c-0.4-0.8-0.7-0.9-1.3-0.2c-1.8,2.2-2.7,4.5-1.8,7.3c0.1,0.4,0.4,0.5,0.8,0.2c0.5-0.3,1-0.7,1.4-1c0.3-0.2,0.7-0.5,0.8-0.9
		C133.3,52.2,133.5,51.2,133.8,50.2L133.8,50.2z M84.4,52.4c-0.3-0.8-0.5-1.8-0.8-2.7c-0.3-1-0.9-1.8-1.8-2.5
		c-0.3-0.2-0.5-0.2-0.7,0.1c-0.2,0.4-0.5,0.9-0.7,1.3c-0.4,1.3-0.2,2.6,0.2,3.9c0.3,1.2,1.3,1.9,2.2,2.5c0.4,0.3,0.7,0.1,0.8-0.3
		c0.2-0.6,0.4-1.2,0.6-1.8C84.3,52.8,84.3,52.7,84.4,52.4z M109.1,20c0.2,0.6,0.5,1.1,0.7,1.7c0.1,0.2,0,0.6-0.2,0.8
		c-0.5,0.5-0.6,1-0.3,1.5c0.1,0.3,0.2,0.7,0.3,1c0.6,2.2,1.2,4.3,1.3,6.6c0,1.1-0.1,2.2-0.2,3.3c-0.1,1.4,0,2.7,1.2,3.7
		c0.2,0.1,0.3,0.3,0.4,0.5c1,1.2,2,2.3,2.2,3.9c0.1,0.9,0.2,1.9,0.2,2.8c0,6.2,0,12.4,0,18.6c0,0.1,0,0.3,0,0.4
		c0,0.1,0.1,0.1,0.3,0.3c0-0.3,0-0.5,0-0.7c0-6.2,0-12.4,0-18.6c0-1-0.1-2-0.2-3c-0.2-1.7-1.3-3-2.5-4.2c-1.1-1-1.5-2.2-1.2-3.6
		c0,0,0-0.1,0-0.1c0.2-2,0.3-3.9-0.1-5.9c-0.4-1.7-0.9-3.4-1.3-5.1c-0.1-0.4-0.2-0.8,0.2-1.1c0.5-0.4,0.5-0.8,0.4-1.3
		c-0.1-0.4-0.2-0.7-0.3-1.1C109.7,20.1,109.4,19.9,109.1,20L109.1,20z M104,20c-0.2,0.1-0.4,0.1-0.4,0.1c-0.2,0.7-0.4,1.3-0.5,2
		c0,0.2,0.1,0.4,0.2,0.6c0.6,0.5,0.5,1,0.3,1.6c-1,3.2-1.8,6.4-1.4,9.8c0.1,0.8,0.1,1.6,0.1,2.4c0,0.4-0.2,0.8-0.4,1.2
		c-0.4,0.6-0.9,1.1-1.4,1.6c-1.2,1.3-2,2.7-2.1,4.4c0,1.2-0.1,2.4-0.1,3.6c0,5.8,0,11.6,0,17.4c0,0.2,0,0.4,0.1,0.6
		c0.1,0,0.1,0,0.2,0c0-0.2,0.1-0.4,0.1-0.6c0-5.9,0-11.7,0-17.6c0-0.9,0-1.9,0-2.8c0.1-1.7,0.6-3.2,1.8-4.5c0.4-0.4,0.7-0.8,1-1.2
		c0.9-0.8,1.2-1.9,1.1-3c0-0.2,0-0.4-0.1-0.6c-0.2-1.9-0.4-3.8,0.1-5.7c0.4-1.8,0.9-3.5,1.4-5.3c0.1-0.5,0.1-1-0.3-1.3
		c-0.4-0.4-0.4-0.7-0.3-1.2C103.7,21,103.9,20.6,104,20L104,20z M101.9,40c0,0-0.1-0.1-0.1-0.1c-0.3,0.5-0.7,1-0.9,1.5
		c-1,1.9-1.2,4-1.2,6c0,5.7,0,11.3,0,17c0,0.2,0,0.4,0,0.6c0.6,0.1,0.5-0.2,0.5-0.5c0.2-5.9,0.3-11.7,0.1-17.6
		C100.1,44.5,100.4,42.1,101.9,40z M104.6,35.9c0.1,0,0.2,0,0.2,0c0.1-0.2,0.2-0.3,0.2-0.5c0.8-3.2,1-6.3,0.8-9.6
		c0-0.1-0.1-0.3-0.1-0.4c-0.2-0.4-0.5-0.4-0.7,0c-0.2,0.3-0.3,0.6-0.3,0.9c-0.8,2.8-0.6,5.6-0.3,8.4
		C104.4,35.1,104.5,35.5,104.6,35.9L104.6,35.9z M82.4,62c0.4,1.5,1.3,2.8,2.8,3.2c1.3,0.3,2.8,0.5,4.2-0.3
		C87.6,62.5,85,62.4,82.4,62z M124.2,64.7c0,0.1,0,0.2,0,0.3c0.6,0.1,1.1,0.2,1.6,0.3c0.5,0.1,1,0,1.5,0c0.7,0.1,1.3-0.2,1.9-0.6
		c0.9-0.7,1.6-1.6,1.9-2.8C128.5,62.4,125.9,62.5,124.2,64.7L124.2,64.7z M86.3,61.5c-1.3-2.5-3.9-3.1-6.4-3.8
		c0.2,1.5,0.8,2.9,2.2,3.5C83.3,61.7,84.8,62.1,86.3,61.5z M133.6,57.7c-2.6,0.8-5.1,1.3-6.4,3.9c0.6,0,1.1,0.2,1.7,0.1
		c0.9-0.1,1.8-0.1,2.6-0.5C132.7,60.5,133.3,59.2,133.6,57.7z M83.8,57.8c-0.2-1.7-3.3-4.2-5.6-4.5C78.2,56.8,80.9,58,83.8,57.8z
		 M135.2,53.2c-2.4,1-4.8,1.9-5.6,4.5c0.6,0.2,1.2,0.2,1.8,0c0.7-0.3,1.5-0.4,2.2-0.7C134.6,56.5,135.4,54.4,135.2,53.2L135.2,53.2z
		 M86.3,51.2c-2.2,1.8-2.8,4.7-1.2,6.1c0.3-0.3,0.6-0.7,0.8-1c0.3-0.5,0.7-1.1,0.9-1.6c0.2-0.3,0.3-0.7,0.3-1
		C87.3,52.8,86.9,52,86.3,51.2L86.3,51.2z M87.6,54.7c-1.9,2.2-2,5.1-0.2,6.2c0.2-0.4,0.5-0.7,0.7-1.1c0.3-0.6,0.5-1.2,0.7-1.9
		c0.1-0.2,0.2-0.4,0.2-0.5C88.9,56.3,88.5,55.4,87.6,54.7z M128.4,57.3c1.6-1.5,0.8-5-1.3-6.1c-0.2,0.3-0.4,0.6-0.6,1
		c-0.4,1-0.5,1.9,0.2,2.8c0.3,0.3,0.4,0.8,0.7,1.2C127.7,56.6,128.1,56.9,128.4,57.3L128.4,57.3z M125.9,54.6
		c-0.2,0.3-0.5,0.6-0.7,0.8c-0.6,0.9-0.9,1.8-0.3,2.8c0.2,0.4,0.3,0.9,0.5,1.3c0.2,0.4,0.5,0.8,0.7,1.3
		C127.9,59.7,127.8,56.8,125.9,54.6L125.9,54.6z M123.9,57.7c-0.3,0.3-0.5,0.6-0.7,0.8c-0.7,0.8-1.2,1.7-0.8,2.8
		c0.1,0.4,0.1,0.8,0.2,1.1c0.1,0.5,0.3,1,0.5,1.5C125.3,63,125.5,60.2,123.9,57.7L123.9,57.7z M89.5,57.7c-1.6,2.4-1.2,5.4,0.8,6.2
		c0.2-0.5,0.3-1,0.5-1.5c0.1-0.4,0.1-0.9,0.3-1.3c0.2-0.6,0.2-1.1-0.2-1.6C90.5,58.9,90,58.4,89.5,57.7z M121.8,60.7
		c-1,0.4-1.8,1.2-2.2,2.1c-0.1,0.1-0.1,0.3-0.1,0.5c0,0.7,0,1.4,0,2c0,0.2,0,0.4,0.2,0.5c0.4,0.3,1.3,0.2,1.7-0.2
		C122.6,64,122.3,62.4,121.8,60.7L121.8,60.7z M91.6,60.7c-0.1,0.8-0.3,1.6-0.4,2.3c0,1.1,0.3,2.1,1.1,2.9c0.4,0.4,0.9,0.1,1.3,0
		c0.1,0,0.2-0.4,0.2-0.7c0-0.6,0-1.2,0-1.8c0-0.2,0-0.4-0.1-0.6C93.5,61.8,92.8,61.2,91.6,60.7z M103.2,19.6h6.8
		c-0.1-1.1-0.3-1.4-1.4-1.4c-1.3,0-2.6,0-3.9,0C103.5,18.3,103.3,18.5,103.2,19.6z M113.8,65V50h-0.2c0,0.2,0,0.4,0,0.6
		c-0.1,2.4-0.2,4.8-0.2,7.2c0,2.2,0,4.5,0,6.7C113.4,64.8,113.3,65.1,113.8,65L113.8,65z M124.7,54.8c-1.9,1-3.8,2.1-5.8,3.1
		c1.5-0.1,2.9-0.2,4.3-0.3c0.3,0,0.7-0.2,0.7-0.5C124.3,56.4,124.5,55.6,124.7,54.8L124.7,54.8z M94.4,58C94.4,58,94.4,58,94.4,58
		c-1.8-1.1-3.7-2.1-5.6-3.1c0.2,0.7,0.5,1.3,0.6,1.9c0.1,0.5,0.4,0.7,0.8,0.8C91.6,57.8,93,57.9,94.4,58z M103.8,36.3
		c-0.4-3.7-0.3-7.3,0.6-11.1C102.8,28.5,102.7,33.5,103.8,36.3z M86.6,66.5c0-0.1,0-0.2,0-0.2c1,0.1,1.9,0.2,2.9,0.2
		c0.5,0,1,0,1.5,0v-0.2c-1.8-0.6-3.6-0.5-5.6-0.5c0.5,0.6,0.8,1.1,1.2,1.5c0.1,0.1,0.3,0.1,0.4,0.1c0.6-0.2,1.2-0.3,1.7-0.5
		c0,0,0-0.1,0-0.1C88,66.7,87.3,66.6,86.6,66.5L86.6,66.5z M94.5,63.1c-0.2,0.9-0.2,1.7,0.1,2.5c0,0.1,0.3,0.1,0.4,0.1
		c0-0.6-0.1-1.2-0.1-1.7c0.3,0.4,0.4,0.9,0.6,1.3c0.1,0.1,0.3,0.3,0.4,0.3c0.4,0,0.8-0.1,1.2-0.2C97.1,64.4,96.1,63.5,94.5,63.1
		L94.5,63.1z M118.5,64c0,0,0.1,0,0.2,0c-0.1,0.4-0.1,0.9-0.1,1.3c0,0.1,0.1,0.2,0.2,0.3c0.1-0.1,0.3-0.1,0.3-0.2
		c0.1-0.8,0.1-1.5,0.1-2.3c-1.4,0.2-2.7,1.3-2.7,2.2c0.4,0.1,0.8,0.1,1.3,0.2c0.1,0,0.3-0.1,0.4-0.3C118.2,64.8,118.4,64.4,118.5,64
		L118.5,64z M128,66c-1.9-0.1-3.6-0.3-5.3,0.4c0.5,0.1,1.1,0.1,1.6,0.1c0.8,0,1.6-0.1,2.5-0.1c0,0.1,0,0.1,0,0.2
		c-0.6,0.1-1.2,0.2-1.7,0.3c0.5,0.2,1,0.4,1.6,0.5c0.1,0,0.3,0,0.3-0.1C127.3,66.8,127.7,66.4,128,66L128,66z M110.2,32.1
		c-0.1,0-0.1,0-0.2,0c-0.2,1.3-0.5,2.5-0.6,3.8c-0.3,2,0.7,3.7,2.8,4.7c-0.3-0.3-0.5-0.5-0.7-0.7c-1.3-1.2-1.8-2.7-1.6-4.4
		C110,34.4,110.1,33.3,110.2,32.1z M105.8,20.2c-0.3,0.1-0.7,0.1-0.8,0.2c-0.1,0.4-0.2,0.8-0.2,1.2c0,0.2,0.8,0.1,1.1-0.2
		c0.1-0.1,0.2-0.2,0.2-0.3c0.1-0.2,0.2-0.5,0.2-0.7C106.3,20.4,106,20.3,105.8,20.2L105.8,20.2z M121.8,59.7
		c-0.8,0.2-1.5,0.5-2.3,0.7C120.6,60.7,121.6,60.5,121.8,59.7z M105.6,22.1c0,0,0,0.1,0,0.1c1.1,0.2,2.2,0.2,3.3-0.1H105.6
		L105.6,22.1z M91.6,59.7c0.3,0.7,1.3,1,2.2,0.7C93.1,60.2,92.4,60,91.6,59.7z M104.6,20.4c-0.1,0-0.2,0-0.3-0.1
		c-0.1,0.5-0.2,0.9-0.3,1.4c0.1,0,0.2,0,0.3,0C104.4,21.3,104.5,20.8,104.6,20.4L104.6,20.4z"/>
	<path class="st0" d="M89.4,74.3c-0.7,0-1.2-0.5-1.2-1.1c0-0.6,0.6-1.2,1.2-1.2c0.7,0,1.3,0.6,1.3,1.2
		C90.7,73.8,90.1,74.3,89.4,74.3L89.4,74.3z"/>
	<path class="st0" d="M123.7,73.2c0-0.7,0.5-1.2,1.2-1.2c0.7,0,1.2,0.5,1.2,1.2c0,0.6-0.6,1.1-1.2,1.2
		C124.3,74.4,123.7,73.9,123.7,73.2z"/>
	<path class="st0" d="M100.1,66.3c4.4-0.6,9.2-0.7,14,0C114.1,66.3,100.1,66.3,100.1,66.3z"/>
	<path class="st0" d="M118.8,75.8c-3.8-0.4-7.5-0.7-11.3-1.1C111.3,74.6,115.1,74.9,118.8,75.8z"/>
	<path class="st0" d="M95.3,75.8c3.3-0.8,6.6-1.2,10-1C102,75.2,98.7,75.5,95.3,75.8z"/>
	<path class="st0" d="M89.9,68.1c2.5-1,5.1-1.4,7.8-1.5C95.1,67.1,92.5,67.6,89.9,68.1z"/>
	<path class="st0" d="M117,66.7c2.5,0,5,0.5,7.3,1.3c0,0,0,0.1,0,0.1C121.9,67.6,119.4,67.2,117,66.7z"/>
	<path class="st0" d="M125.2,85.2c1.1,0.5,2.1,1.1,3.2,1.6c-0.1,0.1-0.1,0.2-0.1,0.2c-1.1-0.5-2.1-1.1-3.2-1.6
		C125.1,85.3,125.1,85.2,125.2,85.2z"/>
	<path class="st0" d="M128.5,86.4c-0.5-0.2-0.9-0.5-1.4-0.7c0.1-0.1,0.1-0.2,0.2-0.2c0.5,0.2,0.9,0.5,1.4,0.8
		C128.6,86.2,128.5,86.3,128.5,86.4z"/>
	<path class="st0" d="M128.6,85.6c-0.3-0.2-0.5-0.3-0.8-0.4l0.1-0.2c0.3,0.2,0.5,0.3,0.8,0.4C128.7,85.4,128.6,85.5,128.6,85.6
		L128.6,85.6z"/>
	<path class="st0" d="M89.4,85.3c-1,0.5-2,1-3,1.6c0-0.1-0.1-0.1-0.1-0.2c0.9-0.7,1.9-1.2,3-1.5C89.4,85.2,89.4,85.2,89.4,85.3
		L89.4,85.3z"/>
	<path class="st0" d="M87.5,85.5c-0.4,0.2-0.9,0.5-1.3,0.7c-0.1-0.1-0.1-0.2-0.2-0.2c0.4-0.2,0.9-0.5,1.3-0.8
		C87.4,85.3,87.4,85.4,87.5,85.5z"/>
	<path class="st0" d="M132,48.1c-1.4,1.8-2,3.8-1.7,6.2C129.2,52.3,130.1,49.3,132,48.1z"/>
	<path class="st0" d="M82.7,54.4c-1.9-0.8-3.3-3.9-1.4-6.3C80.5,50.4,80.9,52.5,82.7,54.4z"/>
	<path class="st0" d="M83.5,62.8c1.8-0.1,3.3,0.6,4.7,1.7C86.6,63.9,85,63.3,83.5,62.8z"/>
	<path class="st0" d="M130.1,62.8c-1.6,0.6-3.1,1.1-4.7,1.7C126.7,63.3,128.3,62.7,130.1,62.8z"/>
	<path class="st0" d="M85.2,61c-1.5-0.8-2.9-1.6-4.4-2.4C82.6,58.8,84.1,59.7,85.2,61z"/>
	<path class="st0" d="M132.6,58.6c-1.4,0.8-2.9,1.6-4.3,2.3C129.4,59.7,130.9,58.9,132.6,58.6z"/>
	<path class="st0" d="M79,54.2c1.7,0.5,3,1.4,3.8,2.9C81.6,56.1,80.3,55.2,79,54.2z"/>
	<path class="st0" d="M134.5,54.2c-1.3,1-2.6,2-4,3C131.4,55.7,132.8,54.7,134.5,54.2z"/>
	<path class="st0" d="M85,56c-0.5-1.1-0.1-2.9,1-3.8C85.7,53.5,85.4,54.8,85,56z"/>
	<path class="st0" d="M87.5,55.8c-0.1,1.2-0.2,2.6-0.4,3.8C86.4,58.8,86.5,56.7,87.5,55.8z"/>
	<path class="st0" d="M127.5,52.2c1.1,0.9,1.5,2.6,1,3.8C128.2,54.8,127.8,53.5,127.5,52.2z"/>
	<path class="st0" d="M126.4,59.6c-0.1-1.3-0.3-2.6-0.4-3.9C126.9,56.7,127.1,58.5,126.4,59.6z"/>
	<path class="st0" d="M124,58.8c0.8,1.5,0.7,2.9-0.4,4.3c0.1-0.7,0.3-1.4,0.3-2.1C124,60.2,124,59.5,124,58.8z"/>
	<path class="st0" d="M90,63c-1-0.8-1.3-3-0.4-4.2C89.4,60.2,89.4,61.6,90,63z"/>
	<path class="st0" d="M121.6,61.8c0.5,1.2,0,2.9-1,3.7C120.9,64.3,121.2,63,121.6,61.8z"/>
	<path class="st0" d="M93.1,65.5c-1.2-0.7-1.7-2.7-1-4c0.1,0.7,0.2,1.4,0.3,2C92.5,64.3,92.8,64.9,93.1,65.5z"/>
	<path class="st0" d="M108.3,19.3c-0.1-0.1-0.3-0.3-0.4-0.5c-0.1,0.1-0.2,0.2-0.3,0.4c0,0-0.1-0.1-0.1-0.1c0.2-0.1,0.4-0.4,0.4-0.4
		c0.2,0.1,0.4,0.3,0.6,0.5C108.4,19.2,108.3,19.2,108.3,19.3L108.3,19.3z"/>
	<path class="st0" d="M106.1,19c0.2-0.1,0.4-0.4,0.5-0.4c0.2,0,0.4,0.3,0.5,0.5c-0.3-0.4-0.6-0.4-0.9,0.1
		C106.2,19.2,106.1,19.1,106.1,19L106.1,19z"/>
</g>
<path class="st1" d="M153.6,72.5c-0.4,0-0.7,0-1-0.1c-0.1,0.3,0,0.7,0.2,1.2c-1.9,0.2-1.1,1.9-3,1.9c-2,0-1.8-1.9-0.8-2
	c0.9-0.2,1.4,1,0.6,1.4c0.9,0.1,1.4-1.1,1.7-2.7c-5.4-1.1-6.1-5.3-9.4-4.5c0.3,1.9-2.6,1.1-1.3-0.6c0.9-1.1,3.4-1.2,5.5,0.9
	c-2.5-2.7-1.7-10,4.3-11V57c0-0.8-0.6-1.3-1.4-0.8c-0.1-0.4,0.5-1.3,1.1-0.7c-0.4-0.5-0.1-1.7,0.2-1.9v-8.3c-0.1-0.2-0.1-0.6,0-0.9
	v-1.4h-0.1c-0.5,0-1-0.4-1-1c0-0.5,0.5-1,1-1s0.7,0.3,0.7,1.2v1.6c0.1-0.1,0.2-0.1,0.4-0.1c0.8-0.1,1.2,0.2,1.6,0.7
	c-0.6-1.5,1.7-1.7,0.7-3.7c1.9-0.2,1.1-1.9,3-1.9c2,0,1.8,1.9,0.8,2c-0.9,0.2-1.4-1-0.6-1.5c-1.6-0.2-2.1,4.5-2.1,6.7v5.2
	c0.2,0,0.5,0,0.7,0c0.2,0,0.3,0,0.5-0.1c0.1,0,0.2,0,0.3,0c2.8-0.6,4.5-2.7,4.9-5c-1.9,0.6-3-1.8-1.4-2.4c-0.5,0.5-0.1,1.5,0.9,1.1
	c0.9-0.4,0.7-1.6,0.4-2.6v0c-0.9-2.8-3.6-5.2-7.9-5.2c-3.4,0-5.9,1-7.5,2.4v0c-1,1.1-0.9,2-0.1,2.6c0.8,0.6,1.4-0.4,1-0.9
	c1.4,0.8-0.1,3.1-2,2c-0.5-0.3-0.8-0.7-1-1.2c-1.6,3.2-0.6,7,2.2,7.3c3.4,0.4,2.8-3.6,0.7-3.4c-1.2,0.1-1,1.2-0.6,1.7
	c-2.4,0.5-2.5-3.9,1.2-3.9c3.9,0,4.4,6.9-1.1,6.6c-7.2-0.3-6.8-14,7-14c11.9,0,15.5,12.8,5.3,15.5C170.2,54.4,170.7,72.7,153.6,72.5
	L153.6,72.5z M150.4,58.6c-5.8,1.3-5.4,10.8,1.1,12.5c0.2-1.1,0.2-2.1,0.2-2.9V67c-4.4-0.2-4.7-4.8-2-5.3c-0.6,0.8-0.9,2.9,1.6,2.9
	c5.2,0,4.6-6,0.8-6.1c-0.4,0-0.7,0-1,0.1v1c0,1.6,0,3.5-1.2,4.1c0.6-1,0.6-3.5,0.6-4.1L150.4,58.6L150.4,58.6z M151,57.1
	c0.2,0,0.5-0.1,0.7-0.1V45.6c0-0.6-0.4-0.8-0.7-0.8V57.1L151,57.1z M163.3,64.5c-2.1,0.4-2.8-2.2-1.1-2.6c-0.6,0.4-0.3,1.5,0.6,1.2
	c1-0.2,1-1.4,0.8-2.4l0,0c-0.3-3.3-2.1-6.4-5.3-7.7c-1-0.3-2.1-0.4-2.6,0.4c-0.4,0.9,0.6,1.3,1.1,0.8c-0.4,1-1.5,0.9-2.1,0.2v3.2
	c3.7,1.8,3.8,7.2,0,8.9v2.2c0,1,0.9,1,1.3,0.3c0.3,0.6-0.1,1.6-1,1.6c-0.8,0.1-1.2-0.2-1.5-0.7h0c0.2,0.6,0,1-0.3,1.4h0.4
	C159.1,71.3,162.2,68.2,163.3,64.5L163.3,64.5z"/>
<path class="st1" d="M184.1,73.7c-2,0.3-5.1-0.9-8.2-4.7c0-0.1-0.1-0.1-0.1-0.1c-5.6,2.4-11.4,7.1-9.5,9.3c0.5,0.7,1.2,0.4,1.3-0.3
	c1.3,1.4-1.2,2.7-2.4,1.4c-3.1-3,3.6-8.4,10.1-11.1c-1.6-2-2.7-2.8-3.9-2.8c-1.9,0-1.9,2.3-0.9,2.4c-0.3-0.6,0.8-1.1,1.1-0.2
	c0.6,1.5-2.3,2-3,0.2c-0.4-1,0.3-2.3,1.6-3h-0.1v-2.9c-0.1-0.3-0.4-0.4-0.7-0.4c-0.4,0-0.5,0.5-0.1,0.7c-0.9,0-0.8-1.6,0.3-1.6
	c0.2,0,0.4,0.1,0.6,0.2v-4.8c-0.2-0.4-0.7-0.7-1.1-0.9c0.4-0.2,0.8-0.5,1.1-0.9v-6.8c0-1.1-1.6-1.6-1.6-1.6v-0.5
	c1.1,0.2,3.8,0.2,7.5,0.1c7.8-0.3,8.7,9.5,1.4,10.8c3.4,2.5,4.6,9.4,6.8,8.3c0,0.7-0.1,1.4-1.2,1.6c-0.9,0.1-1.6-0.3-2.2-1.3
	c-1.8,1.1-2.4-1.3-3.6-5.2c-0.7-2.6-1-3.3-2.4-3.2c-1.1,0.1-0.7,1.1,0,0.7c0.2,0.7-1,1.2-1.5,0.5c-0.1-0.1-0.1-0.2-0.2-0.4v7.8
	c1.2,0.4,2.5,1.3,4,2.8c1.4-0.5,2.8-0.8,4-0.9C187.9,66.2,189.8,72.9,184.1,73.7L184.1,73.7z M173.3,47.1V55c0,0,1.7,0,2.6,0
	c5.1,0,4-9,0.4-9c-1.8,0-2.1,1.4-1,1.8C174.2,48.3,173.3,47.7,173.3,47.1L173.3,47.1z M181.3,67.3c-1,0.1-2.2,0.4-3.5,0.8
	c0.9,1.1,1.8,2,2.7,2.7c-0.1-0.4-0.1-0.8,0.2-1c0.7-0.6,1.5,0.1,0.9,0.6c-0.7-0.4-0.7,0.6-0.2,1.2c1,0.7,2,1,3,0.9
	C188.3,72.2,186.8,66.9,181.3,67.3L181.3,67.3z"/>
<path class="st1" d="M198.5,64.3l-0.1,0.4c-1.6-0.6-11.4-0.5-12.8-0.1v-0.5c0,0,1.6-0.4,1.6-1.7v-0.9c-0.1-0.3-0.4-0.5-0.7-0.5
	c-0.4,0-0.5,0.5-0.1,0.7c-0.9,0-0.8-1.6,0.3-1.6c0.2,0,0.4,0,0.6,0.2v-4.5c-0.2-0.4-0.7-0.7-1.1-0.9c0.4-0.2,0.8-0.5,1.1-0.9v-6.8
	c0-1.3-1.6-1.7-1.6-1.7v-0.5c1.4,0.3,11.2,0.5,12.8-0.1l0.1,0.4c-0.9,0.9-3.4,7.6-2,7.6c-0.2-0.3,0.1-0.9,0.7-0.7s0.6,1.5-0.9,1.3
	c-1.6-0.2-1-3-0.8-4.2c-0.8,0.4-1.6-0.2-1.6-0.9c1.7-0.2,1.2-2.1-0.7-2.3s-2.9,0.2-2.9,0.9v7.3c0.6-0.8,2.2-1.5,3.4-1.4
	c1.3,0.2,2.2,1.4,1.8,2.6c-0.4,1.2-1.8,1.5-2.8,0.6c1.1-0.5,0.9-1.5,0.6-1.9c-0.8-1-2.2,0-3,0.9v7.1c0,0.8,1,1.1,2.9,0.9
	c1.9-0.1,2.1-1.7,1-1.7c0-0.7,0.8-1.3,1.6-0.9c-0.6-2.3-0.1-4.7,1.4-4.8c1.5-0.2,1.5,1.2,0.9,1.3s-1-0.4-0.7-0.7
	C196,56.6,197.1,62.9,198.5,64.3L198.5,64.3z"/>
<path class="st1" d="M219.9,45.3c1.5,0.2,3,0.2,4.5,0l0,0.5c0,0-1.4,0.1-2,1.2l-1.8,6.8c0.1,0.4,0.5,0.9,0.8,1.2
	c-0.4,0-0.9,0.3-1.3,0.6l-2,7.5c0.5,0.8,1.6,1.1,1.6,1.1l0.1,0.5c-2.1-0.2-4.3-0.3-6.4,0l-0.1-0.5c0,0,1.8-0.4,1.5-1.6l-3-10.3
	L208.9,63c0.5,0.8,1.6,1.1,1.6,1.1l0.1,0.5c-2.1-0.2-4.3-0.3-6.4,0l-0.1-0.5c0,0,1.6-0.4,1.5-1.4c0,0,0-0.1,0-0.1v-0.1l-0.1-0.1
	c-0.2-0.5-0.6-0.7-1-0.5c-0.4,0.1-0.2,0.7,0.1,0.7c-0.9,0.3-1.3-1.2-0.3-1.6c0.3-0.1,0.6-0.1,0.8,0l-1.6-5.4
	c-0.4-0.4-0.9-0.6-1.3-0.6c0.3-0.3,0.7-0.7,0.8-1.2l-1.9-6.8h0c-0.2-0.9-1.8-1.3-1.8-1.3l-0.1-0.5c0.7,0.1,1.4,0.1,2.1,0.2h2.1
	c0.7,0,1.4-0.1,2.1-0.2l0.1,0.5c0,0-1.7,0.4-1.5,1.3l1.7,6c0.7,1,1.9,0.6,1.8-0.5c1,0.5,1.1,2.3-0.4,2.5c-0.3,0-0.6,0-0.8-0.1
	l1.7,5.9l2.9-10.8l-0.9-3h0c-0.2-0.9-1.8-1.3-1.8-1.3l-0.1-0.5c0.7,0.1,1.4,0.1,2.1,0.2h2.1c0.7,0,1.4-0.1,2.1-0.2l0.1,0.5
	c0,0-1.7,0.4-1.5,1.3l1.6,5.4c0.8,1.5,2.4,0.8,2-0.3c1,0.3,1.5,2,0,2.6c-0.5,0.2-1,0-1.4-0.2l1.8,6.4l3.8-13.9
	c0.2-1.1-1.3-1.2-1.3-1.2L219.9,45.3L219.9,45.3z"/>
<path class="st1" d="M31,57.2c-0.3,8.5-5,16.6-14.4,16.6c-0.4,0-0.7,0-1,0c-0.1,0.3-0.1,0.7,0.2,1.3c-1.9,0.2-1.1,1.9-3,1.9
	c-1.9,0-1.7-1.8-0.8-2c0.9-0.2,1.4,0.9,0.6,1.4c0.9,0.1,1.4-1.2,1.7-2.7c-5.3-0.9-6-5-9.3-4.2c0.6,0.9-0.7,1.9-1.5,1
	c-0.4-0.5-0.3-1.2,0.2-1.7c1-0.9,3.3-1.3,5.4,0.8c-3-3.2-1.8-9.8,4.1-10.8v-0.2c0-0.8-0.6-1.2-1.4-0.8c-0.1-0.4,0.5-1.3,1.1-0.7
	c-0.4-0.5-0.1-1.6,0.2-1.8V44.7h-0.1c-0.5,0-1-0.4-1-0.9c0-1.3,1.6-1.4,1.6,0.2v1.4c0.2-0.1,0.3-0.2,0.5-0.2c0.8,0,1.2,0.2,1.5,0.7
	c-0.6-1.5,1.6-1.7,0.7-3.6c1.9-0.2,1.1-1.9,3-1.9c2,0,1.7,1.8,0.8,2c-0.9,0.2-1.4-1-0.6-1.4c-1.7-0.3-2.1,5.1-2.1,7h0v11.1
	c3.4,1.8,3.3,6.8,0,8.6v2.5c0,1,0.9,1,1.3,0.3c0.3,0.6-0.1,1.5-1,1.6c-0.8,0.1-1.2-0.2-1.5-0.7c0.2,0.5,0.1,0.9-0.2,1.2h0.3
	c4.6,0,7.7-3.1,9.5-7.4c-0.1,0-0.3,0-0.4,0c-2.1-0.3-1.9-3-0.2-2.8c-0.6,0.2-0.8,1.3,0.2,1.3c0.6,0.1,1-0.3,1.3-0.9
	c1.3-4.9,1-10.8-0.8-15.5c-0.2,0.2-0.5,0.4-0.8,0.5c-2,0.8-3.2-1.7-1.6-2.3c-0.5,0.5,0,1.5,0.8,1c0.5-0.3,0.7-0.8,0.6-1.4
	c-1.9-3.6-4.9-6.1-9-6.1c-3.8,0-6.3,1.1-7.9,2.7c-0.4,0.8-0.2,1.5,0.4,2c0.8,0.6,1.4-0.3,1-0.9c1.4,0.8-0.1,3.1-2,2
	c-0.4-0.2-0.7-0.6-0.8-1c-1.3,3-0.3,6.4,2.1,6.7c3.4,0.5,2.8-3.3,0.7-3.2c-1.2,0.1-1,1.2-0.6,1.7c-2.4,0.5-2.4-3.8,1.2-3.9
	c3.8,0,4.4,6.8-1.1,6.5C2.1,51.5,2.4,38,16,38c9.5,0,14.7,8.6,15,17.5c0.3,0.4,0.7,0.7,1,0.9C31.7,56.5,31.3,56.8,31,57.2L31,57.2z
	 M13.3,60.1c-5.5,1.2-5.2,10.7,1.2,12.4c0.1-1,0.2-2,0.2-2.7v-1.2c-4.3-0.1-4.6-4.7-2-5.3C12.1,64,11.8,66,14.2,66
	c5.1,0,4.7-5.8,0.8-6.1c-0.4,0-0.8,0-1.1,0v1c0,1.6,0,3.4-1.2,4.1c0.6-0.9,0.6-3.4,0.6-4L13.3,60.1L13.3,60.1z M13.9,58.6
	c0.3,0,0.5-0.1,0.8-0.1V47.7h0v-0.7c0-0.7-0.4-0.9-0.8-0.7V58.6L13.9,58.6z"/>
<path class="st1" d="M48.1,73.7c-4.4-0.5-8.1-8.1-11-8.1c-1.9,0-2.6,1.4-1.4,2.4c-0.3-0.5,0.8-1.1,1.1-0.3c0.7,1.5-1.8,2.5-2.9,0.3
	c-0.6-1.2,0-2.8,1.3-3.4V63c-0.1-0.3-0.4-0.5-0.7-0.5c-0.4,0-0.5,0.5-0.1,0.7c-0.9,0-0.8-1.5,0.3-1.6c0.2,0,0.4,0,0.6,0.2v-4.5
	c-0.2-0.4-0.7-0.7-1.1-0.9c0.4-0.2,0.8-0.5,1.1-0.9v-6.7c0-1.2-1.6-1.6-1.6-1.6v-0.5c1.4,0.3,11.1,0.5,12.7-0.1l0.1,0.4
	c-0.9,0.9-3.3,7.5-2,7.5c-0.2-0.3,0.1-0.9,0.7-0.7s0.6,1.5-0.9,1.3c-1.5-0.2-1-3-0.8-4.2c-0.8,0.4-1.5-0.2-1.5-0.9
	c1.7-0.2,1.2-2.1-0.7-2.2c-1.9-0.1-2.9,0.2-2.9,0.9v7.2c0.6-0.8,2.2-1.5,3.3-1.3c1.3,0.2,2.2,1.4,1.8,2.6c-0.4,1.1-1.8,1.5-2.7,0.6
	c1-0.5,0.9-1.4,0.6-1.8c-0.8-1-2.2,0-3,0.9v7.7c1.2,0.5,2.3,1.4,3.3,2.5h0c0.6,0.5,1.1,0.4,1.4,0c0.2-0.3-0.2-0.5-0.5-0.5
	c0.7-0.8,1.7,0.1,1.2,1.1c-0.2,0.4-0.7,0.5-1.1,0.5c1.7,1.8,3.3,3.6,5.4,3.9c4,0.5,4.5-4.9,1.2-4.7C48,67.4,47.7,69,49,69.7
	c0.7,0.4,1.2-0.4,0.9-0.8c1.2,0.7,0.8,2.4-0.8,2.4c-3.2,0-3.2-4.4-0.2-4.7C54.3,65.9,54.7,74.4,48.1,73.7L48.1,73.7z"/>
<path class="st1" d="M59.8,47.3c0,0-1.6,0.4-1.6,1.5v6.7c0.3,0.4,0.7,0.7,1,0.9c-0.3,0.2-0.8,0.5-1,0.9v0c0,2.7,0.4,8.7-5.7,8.8
	c-6.5,0.1-6.2-6.9-1.7-7c3.1-0.1,3.4,3.5,1.4,4c0.2-0.6,0-1.7-1.2-1.7c-2.1,0-1.7,4.2,1.2,4.1c2.8-0.1,2.8-3.2,2.8-8.1
	c-0.2-0.4-0.7-0.7-1.1-0.9c0.4-0.2,0.8-0.5,1.1-0.9v-6.6c0-1.2-1.6-1.5-1.6-1.5v-0.5c2.1,0.3,4.2,0.2,6.3,0L59.8,47.3L59.8,47.3z"/>
<path class="st1" d="M70.5,65.8c-0.7,0-1.4,0.1-2.1,0.2l-0.1-0.5c0,0,1.7-0.4,1.5-1.3l-1.4-4.8l-5,0l-1.3,4.8
	c-0.2,1.1,1.3,1.1,1.3,1.1l-0.1,0.5c-1.5-0.2-3-0.2-4.4,0l0-0.5c0,0,1.4-0.1,2-1.2l1.8-6.7c-0.1-0.4-0.5-0.9-0.8-1.2
	c0.4,0,0.9-0.3,1.2-0.6l2-7.4c-0.5-0.8-1.6-1.1-1.6-1.1l-0.1-0.5c2.1,0.2,4.2,0.3,6.3,0l0.1,0.5c0,0-1.8,0.4-1.5,1.5l2,6.9
	c0.4,0.3,0.9,0.6,1.3,0.6c-0.3,0.3-0.7,0.7-0.8,1.2l1.9,6.7h0c0.2,0.9,1.8,1.3,1.8,1.3l0.1,0.5c-0.7-0.1-1.4-0.1-2.1-0.2L70.5,65.8
	L70.5,65.8z M63.9,58.2l4.2,0l-2.2-7.6L63.9,58.2L63.9,58.2z"/>
<polygon class="st1" points="95,74.2 94.4,72.4 92.5,71.9 94,70.7 94,68.8 95.5,69.9 97.3,69.3 96.8,71.1 98,72.6 96,72.6 "/>
<polygon class="st1" points="100.6,73.2 100.1,71.4 98.3,70.7 99.9,69.7 100,67.8 101.5,69 103.3,68.4 102.6,70.2 103.7,71.8 
	101.8,71.7 "/>
<polygon class="st1" points="119.4,74.4 118.3,72.9 116.3,72.9 117.5,71.3 116.9,69.5 118.7,70.1 120.3,69 120.2,70.9 121.8,72.1 
	120,72.6 "/>
<polygon class="st1" points="113.5,73.4 112.4,71.8 110.5,71.8 111.7,70.3 111.1,68.4 112.9,69.1 114.4,67.9 114.4,69.9 116,71 
	114.1,71.5 "/>
</svg>
