<?xml version="1.0" encoding="UTF-8"?><svg id="Layer_1" xmlns="http://www.w3.org/2000/svg" viewBox="0 0 227.72 117.58"><defs><style>.cls-1{fill:#6091a0;}.cls-1,.cls-2{stroke-width:0px;}.cls-2{fill:#1c3f47;}</style></defs><g id="jOv6T4.tif"><path class="cls-1" d="m133.84,55.29c.59-.11.84-.37.98-.87,1.19-4.28,1.5-8.61,1-13-.12-1.02-.25-2.04-.37-3.06.05,0,.11-.02.16-.02.21,1.17.46,2.33.64,3.5.61,4.11.41,8.19-.46,12.26-.04.21-.01.44.02.66.21,1.57-.21,2.98-1.17,4.28-.24.33-.43.73-.5,1.12-.24,1.35-.86,2.49-1.93,3.43-.2.18-.37.44-.45.69-.47,1.45-1.33,2.62-2.73,3.43-.11.06-.23.14-.29.23-.39.62-.76,1.24-1.15,1.88.76.25,1.54.49,2.3.77,1.39.51,2.39,1.37,2.67,2.82.15.76-.06,1.42-.62,1.99-.86.87-1.57,1.82-2.06,2.89,1.43.74,2.83,1.45,4.21,2.19.62.33,1.2.72,1.78,1.11.18.12.28.34.41.51-.18.11-.34.24-.54.32-1.79.73-3.57,1.45-5.37,2.17-.33.13-.42.33-.41.65.02,1.76-.15,3.5-.57,5.22-.12.5-.3.59-.71.31-1.99-1.33-4.2-2.23-6.47-3.04-.52-.19-1.03-.53-1.4-.91-.55-.56-.52-1.24-.24-1.97.52-1.33.94-2.69,1.42-4.04.18-.51-.03-.7-.56-.82-5.5-1.32-11.09-1.81-16.76-1.62-3.97.13-7.89.66-11.75,1.56-.45.1-.61.27-.47.68.42,1.29.77,2.6,1.28,3.85.62,1.51.15,2.57-1.46,3.2-1.59.62-3.15,1.3-4.71,2-.49.22-.92.54-1.37.83-.5.32-.66.3-.81-.27-.26-1.06-.5-2.12-.68-3.19-.11-.64-.07-1.3-.15-1.94-.03-.2-.19-.46-.37-.55-1.73-.9-3.55-1.6-5.46-2.09-.21-.05-.38-.22-.57-.34.13-.16.23-.35.39-.47,1.73-1.28,3.64-2.29,5.63-3.18.13-.06.26-.13.54-.26-.68-.9-1.28-1.81-2-2.63-1.24-1.4-1.19-2.95.28-4.16.47-.39,1.05-.66,1.62-.93.48-.22,1.01-.36,1.46-.51-.43-.69-.84-1.35-1.27-2.01-.07-.11-.2-.2-.33-.27-1.41-.82-2.26-2.02-2.73-3.49-.07-.22-.22-.44-.4-.6-1.12-.97-1.76-2.16-1.97-3.57-.05-.31-.2-.64-.4-.89-.89-1.11-1.25-2.35-1.32-3.73-.05-1.16-.28-2.32-.45-3.48-.66-4.41-.52-8.78.51-13.13.04-.15.09-.3.23-.43-.06.45-.1.91-.17,1.36-.59,3.87-.62,7.73.09,11.59.18.98.46,1.95.64,2.94.11.61.48.9,1.18,1.05-.86-3.14-1.25-6.29-1.17-9.49.08-3.18.54-6.32,1.62-9.36-1.07,4.87-1.5,9.75-.51,14.68.27-.83.57-1.63,1.23-2.28.13-.13.09-.43.08-.65-.24-4.26.42-8.4,1.82-12.44.21-.61.47-1.2.81-1.76-.28,1-.57,1.99-.83,2.99-.96,3.73-1.31,7.51-.95,11.34.01.15.05.34.15.43.43.41.89.78,1.41,1.24-.43-4.29-.12-8.45,1.3-12.5-.58,2.71-.96,5.44-.93,8.2.03,2.76.39,5.49,1.28,8.19.41-.26.62-.51.5-1.02-1.02-4.28-.99-8.56.08-12.83.04-.17.1-.33.17-.56-.14,1.64-.31,3.22-.41,4.8-.16,2.7.16,5.36.85,7.98.04.14.16.27.26.39.67.73,1.15,1.55,1.33,2.51.03.19.19.46.35.51,2.37.74,4.74,1.45,7.12,2.17.07.02.14.03.37.07-3.08-2.58-6.05-5.07-9.02-7.55.02-.03.04-.05.06-.08,3.44,1.85,6.88,3.71,10.32,5.56l.1-.09c-2.29-2.94-4.59-5.87-6.88-8.81.04-.03.07-.06.11-.09,2.45,2.06,4.9,4.11,7.46,6.26,0-.85.15-1.56-.2-2.29-1.1-2.23-2.16-4.48-3.23-6.72-.02-.04-.02-.09.04-.18,1.09,1.4,2.18,2.79,3.33,4.26.11-1.16.12-2.22.34-3.24.22-1,.67-1.97.99-2.85.17-.07.33-.09.4-.18.59-.66,1.14-1.36,1.74-2,.5-.53.65-1.11.61-1.79-.09-1.47-.21-2.95-.2-4.42.01-2.57.76-5.03,1.53-7.47.13-.42.17-.74-.24-1.07-.44-.35-.44-.88-.34-1.38.06-.29.16-.58.26-.86.1-.28.16-.49-.12-.79-.5-.55.29-2.05,1.13-2.16.82-.11,1.65-.15,2.47-.15,1.01,0,2.03.02,3.04.14,1.09.12,1.66,1.5,1.06,2.36-.07.09-.05.26-.02.38.09.34.22.67.31,1.01.14.56.09,1.11-.39,1.51-.33.28-.29.55-.21.9.5,2.01,1.16,4.01,1.42,6.05.23,1.83.05,3.71-.04,5.57-.05.93.1,1.71.8,2.41.64.64,1.19,1.36,1.8,2.06.08-.07.17-.14.17-.13.12.34.23.71.39,1.05.64,1.34.77,2.77.83,4.22.01.29,0,.59.13.94,1.14-1.45,2.28-2.91,3.41-4.36.03.02.06.03.09.05-.5,1.05-.99,2.1-1.49,3.15-.62,1.3-1.22,2.6-1.89,3.88-.36.69-.24,1.39-.27,2.24,2.62-2.19,5.12-4.3,7.62-6.4.04.03.08.06.11.09-2.3,2.94-4.6,5.89-6.9,8.83.03.03.06.06.08.09,3.42-1.84,6.85-3.69,10.27-5.53.02.03.05.06.07.09-2.94,2.47-5.89,4.93-8.83,7.4l.06.09c1.16-.35,2.31-.69,3.47-1.04,1.28-.39,2.57-.77,3.85-1.19.19-.06.38-.29.46-.48.25-.56.33-1.24.71-1.69.82-.99,1.01-2.13,1.22-3.28.67-3.55.48-7.1.02-10.66.1.39.21.77.3,1.16.09.39.19.79.25,1.18.6,3.68.56,7.34-.33,10.99-.1.42-.08.43.62,1.01.89-2.71,1.26-5.45,1.29-8.25.02-2.78-.39-5.52-.95-8.24,1.46,4.32,1.83,8.73,1.21,13.31.45-.53.76-1.07,1.24-1.42.59-.44.76-.93.81-1.61.2-2.68.07-5.34-.45-7.97-.36-1.81-.87-3.59-1.31-5.38-.05-.2-.12-.4-.17-.59.05-.01.1-.03.14-.04.39,1.09.83,2.17,1.17,3.28.99,3.29,1.52,6.65,1.46,10.08-.02.98-.19,1.95.7,2.72.16.14.21.4.36.6.84-4.72.36-9.38-.64-14.02,2.02,6.26,2.15,12.56.47,18.93Zm-43.21,28.58c-.86.66-2,.66-2.63.07-.76-.7-.91-1.75-.21-2.53.42-.46,1.01-.87,1.62-1.07,4.37-1.49,8.92-2.18,13.55-2.49,3.85-.26,7.7-.14,11.53.3,3.61.42,7.15,1.12,10.56,2.29.59.2,1.16.6,1.58,1.04.72.74.55,1.92-.26,2.61-.66.56-1.88.51-2.68-.19.96.11,1.9.38,2.6-.54-1.4.37-1.55.37-2.06.03,1.45-.11,1.73-.24,1.95-.77-.4.04-.85.08-1.3.12-.01-.05-.02-.11-.04-.16.48-.14,1.07-.12,1.21-.73-.32.05-.62.09-.91.14,0-.04,0-.07-.01-.11.17-.14.35-.27.67-.52-.95-.34-1.75-.62-2.61-.93.03.18.04.27.05.34-.24.05-.45.08-.8.15.35.16.56.26.83.39-.36.13-.61.23-.93.34.32.16.53.27.77.39-.39.13-.7.23-1.12.37.39.21.61.32.91.48-.4.09-.67.15-1.04.23.36.17.59.28.91.43-.45.08-.77.14-1.03.18.82.31,1.64.62,2.46.91.33.12.68.27,1.02.26.41,0,.91-.05,1.21-.27.81-.6,1.18-1.48,1.05-2.42-.18-1.24-1.09-2.01-2.26-2.5-.66-.27-1.36-.46-2.04-.69,1.95.1,3.63.68,4.7,2.42.03-.73-.14-.93-1.93-2.41.03-.04.05-.08.08-.13.62.35,1.24.69,1.89,1.05.18-.72-.59-.92-.84-1.45.33.16.66.32.99.48.4-.55-.33-.66-.47-1.06.27.09.49.16.69.22.42-.4.13-.71-.21-1.08.28.07.43.11.79.2-.11-.41-.19-.7-.27-.98.11.04.28.09.45.14.57-.69-.3-.88-.6-1.42.45.24.76.41,1.06.57.51-.36.43-.75.04-1.12-.4-.38-.84-.73-1.29-1.13.84.2,1.43.7,2.03,1.28.08-.21.17-.48.06-.6-.47-.51-.97-1.01-1.51-1.45-.29-.24-.69-.35-1.04-.52.03-.05.05-.1.08-.15.57.25,1.18.43,1.7.75.52.32.93.78,1.39,1.18.09-.16.1-.33.02-.46-.42-.7-1.08-1.17-1.83-1.51-.68-.3-1.38-.55-2.07-.82,1.91.24,3.59.85,4.7,2.44-.18-1.1-.87-1.82-1.91-2.24-.53-.22-1.08-.39-1.64-.57-5.31-1.68-10.78-2.63-16.37-2.97-7.9-.48-15.69.14-23.32,2.18-1.33.36-2.65.78-3.95,1.23-1.17.41-1.97,1.36-1.98,2.29,1.14-1.63,2.84-2.23,4.74-2.48-.34.16-.72.27-1.08.41-.38.14-.8.26-1.12.48-.62.44-1.19.94-1.76,1.44-.1.09-.08.31-.11.47,1.84-1.51,2.41-1.83,3.3-1.73-1.09.37-1.98.91-2.55,1.85-.16.26-.23.49.14.68.52-.55,1.08-1.08,1.9-1.25-.45.41-.89.79-1.3,1.19-.39.39-.28.74.12,1.03.33-.18.62-.34.99-.54-.17.53-1.16.69-.52,1.39.18-.06.34-.11.67-.22-.38.37-.7.64-.28,1,.17-.04.33-.07.49-.1-.38.33-.48.66-.14,1.06.21-.07.43-.15.7-.24-.17.4-.82.53-.48,1.06.34-.16.67-.31,1.1-.51-.33.6-1.14.77-.95,1.49.67-.37,1.3-.71,1.92-1.06l.08.13c-1.68,1.25-2,1.62-1.95,2.32,1.5-1.68,3.32-2.56,4.63-2.32-.77.29-1.68.54-2.5.95-1.67.84-2.17,2.35-1.38,3.88.48.94,1.32,1.29,2.37.98.21-.06.42-.16.63-.23.79-.28,1.58-.56,2.39-.84-.28-.06-.61-.12-1.05-.22.34-.15.57-.25.94-.41-.43-.09-.7-.15-1.1-.24.33-.16.55-.28.78-.39,0-.05.02-.1.02-.15-.3-.09-.61-.18-1.01-.31.28-.13.49-.23.81-.39-.34-.13-.61-.23-.96-.35.28-.13.5-.23.84-.38-.37-.07-.6-.11-.82-.15.03-.1.05-.18.11-.36-.9.32-1.71.61-2.66.94.35.25.53.39.72.53-.01.04-.03.07-.04.11-.29-.05-.58-.1-.89-.15.11.64.77.55,1.19.76-.01.05-.02.1-.04.15-.47-.06-.93-.11-1.38-.17.41.72,1.2.77,2.12.81-.81.38-1.44.19-2.17-.1.69,1,1.63.7,2.51.66Zm12.91-16.86c0-.28,0-.49,0-.7,0-4.46-.02-8.92,0-13.38.01-3.25.19-6.49,1.19-9.64.12-.37.19-.77.16-1.14-.03-.32-.16-.78-.39-.89-.21-.1-.71.11-.95.32-1.04.88-1.66,2.02-2.05,3.27-.44,1.4-.53,2.83-.52,4.27.03,5.85.07,11.69.11,17.54,0,.15.02.3.04.48.82-.05,1.59-.09,2.42-.14Zm18.21,18.88s-.03.06-.05.09c.75.4,1.5.8,2.25,1.2-.02.05-.05.1-.07.15-.96-.4-1.91-.8-2.86-1.19.26.57.83.84,1.43,1.08,1.61.66,3.23,1.32,4.82,2.02.58.26,1.11.62,1.7.96.37-1.72.46-3.39.39-5.08-.02-.5.16-.78.63-.98,1.62-.69,3.23-1.39,4.85-2.09.11-.05.21-.1.46-.22-1.68-.91-3.24-1.75-4.8-2.59-.03.04-.05.09-.08.13.87.54,1.74,1.07,2.6,1.61-.03.04-.05.08-.08.12-.99-.45-1.98-.91-2.98-1.36-.02.03-.04.06-.06.09l.93.69s-.04.08-.07.12c-.51-.19-1.03-.37-1.54-.56,0,.02-.02.04-.02.06.28.21.57.43.85.64-.02.03-.04.07-.06.1-.36-.09-.72-.19-1.18-.3.2.24.34.4.52.62h-.69c.1.17.17.3.16.29-.21.3-.39.48-.47.69-.2.51-.35,1.04-.54,1.55-.64,1.67-2.04,2.23-3.76,1.52-.39-.16-.78-.34-1.17-.51-.06-.03-.14-.02-.23-.03.06.11.1.19.14.28-.13.03-.23.06-.41.1.45.27.82.48,1.2.7-.01.03-.03.06-.04.09-.39-.11-.79-.23-1.18-.34-.02.03-.03.07-.05.1l1.56.78s-.03.07-.05.11c-.68-.21-1.36-.43-2.04-.64Zm-42.64-4.05c.3.12.42.17.53.22,1.64.68,3.29,1.37,4.94,2.04.4.16.54.42.53.83-.02.58-.02,1.16.05,1.74.14,1.1.33,2.2.51,3.32,1.17-.61,2.21-1.2,3.3-1.7.98-.44,2.01-.78,3.01-1.17.58-.23,1.16-.45,1.41-1.17-.93.57-1.8,1.04-2.91,1.16.78-.43,1.49-.82,2.21-1.21-.02-.02-.04-.05-.06-.07-.65.2-1.31.41-1.96.61-.01-.04-.03-.07-.04-.11.55-.28,1.1-.56,1.64-.84-.01-.03-.03-.05-.04-.08-.42.13-.84.26-1.26.39-.02-.04-.03-.07-.05-.11.35-.22.71-.44,1.11-.68-.16-.06-.27-.09-.49-.17.19-.1.31-.15.42-.21-.03-.03-.05-.07-.08-.1-.54.23-1.08.47-1.63.69-1.44.58-2.65.21-3.36-1.1-.33-.6-.48-1.29-.75-1.92-.11-.26-.3-.49-.51-.81,0,0,.05-.11.11-.24-.23-.02-.41-.03-.68-.06.19-.2.32-.34.55-.58-.49.12-.84.21-1.2.3-.02-.04-.03-.08-.05-.11.28-.21.56-.42.84-.63-.01-.02-.03-.04-.04-.06-.52.2-1.05.4-1.57.6-.03-.04-.05-.07-.08-.11.34-.25.68-.51,1.02-.76-.02-.03-.04-.05-.06-.08-1.01.48-2.02.95-3.03,1.43-.02-.04-.05-.08-.07-.12.91-.58,1.82-1.15,2.73-1.73-.03-.04-.06-.09-.09-.13-1.6.9-3.19,1.79-4.92,2.76Zm54.67-29.48c-.26-.83-.43-1.69-.79-2.48-.38-.83-.71-.87-1.3-.17-1.82,2.16-2.73,4.54-1.79,7.31.14.42.45.48.83.2.47-.35.98-.65,1.43-1.02.31-.25.68-.54.8-.89.33-.94.54-1.91.83-2.95Zm-49.36,2.27c-.26-.85-.5-1.8-.83-2.73-.35-.97-.91-1.84-1.76-2.53-.3-.24-.54-.23-.73.08-.25.43-.53.86-.67,1.32-.4,1.32-.19,2.63.19,3.94.34,1.19,1.27,1.86,2.22,2.54.37.27.69.12.81-.3.18-.62.4-1.23.6-1.85.04-.11.08-.23.17-.47Zm24.64-32.41c.24.58.51,1.12.66,1.69.06.24-.04.61-.21.79-.47.47-.56.96-.35,1.55.12.33.21.67.31,1.01.63,2.17,1.25,4.34,1.27,6.6,0,1.1-.08,2.21-.19,3.31-.14,1.4-.04,2.7,1.16,3.73.16.14.29.32.44.48,1.04,1.15,2.01,2.33,2.17,3.9.09.94.2,1.89.2,2.83,0,6.2-.01,12.39-.02,18.59,0,.14-.02.29.02.42.02.08.14.14.33.31,0-.35,0-.54,0-.73,0-6.21.03-12.43.01-18.64,0-1-.1-2-.22-2.99-.2-1.72-1.32-3.01-2.51-4.2-1.05-1.05-1.48-2.2-1.21-3.6,0-.03,0-.07.01-.1.15-1.96.35-3.93-.1-5.88-.4-1.73-.88-3.44-1.34-5.15-.11-.42-.17-.81.22-1.11.48-.37.53-.82.37-1.33-.11-.35-.25-.7-.33-1.06-.09-.4-.31-.53-.68-.42Zm-5.01-.06c-.23.08-.38.09-.4.14-.2.66-.4,1.31-.53,1.98-.03.17.1.44.25.56.6.45.51.96.32,1.56-1.03,3.21-1.84,6.44-1.42,9.84.1.8.14,1.61.11,2.42-.02.4-.18.83-.41,1.17-.4.57-.88,1.09-1.36,1.61-1.17,1.27-2.02,2.66-2.08,4.38-.04,1.19-.09,2.38-.1,3.58,0,5.8,0,11.59,0,17.39,0,.21.03.42.05.63.07,0,.14,0,.21.01.03-.2.08-.39.08-.59,0-5.87,0-11.73,0-17.6,0-.93,0-1.86.04-2.79.07-1.68.58-3.21,1.81-4.48.36-.38.66-.81,1.04-1.17.9-.85,1.24-1.86,1.08-3.03-.03-.19-.03-.38-.05-.58-.15-1.91-.36-3.83.07-5.72.41-1.78.9-3.55,1.37-5.31.13-.5.13-.97-.29-1.31-.43-.35-.44-.73-.28-1.19.16-.46.31-.92.5-1.49Zm-2.14,19.98s-.09-.06-.13-.09c-.32.51-.67,1-.95,1.53-1,1.91-1.21,3.97-1.22,6.05-.03,5.67,0,11.34,0,17.01,0,.2.02.41.03.61.56.1.48-.24.49-.51.2-5.86.28-11.72.07-17.58-.09-2.47.22-4.88,1.71-7.02Zm2.65-4.04c.08,0,.15,0,.23.01.07-.17.15-.34.19-.52.84-3.15,1.01-6.34.78-9.56,0-.14-.05-.28-.11-.4-.18-.35-.46-.37-.66-.04-.16.27-.27.58-.35.88-.8,2.77-.62,5.56-.28,8.36.05.42.13.84.2,1.26Zm-22.2,26.06c.45,1.51,1.29,2.78,2.77,3.17,1.3.35,2.82.46,4.2-.34-1.74-2.27-4.34-2.45-6.97-2.83Zm41.87,2.74c0,.09,0,.17,0,.26.55.1,1.09.24,1.64.3.48.05.98-.03,1.46.02.73.08,1.32-.16,1.86-.57.93-.71,1.6-1.57,1.9-2.76-2.61.39-5.21.55-6.88,2.74Zm-37.91-3.18c-1.31-2.55-3.86-3.08-6.39-3.83.23,1.53.79,2.92,2.19,3.5,1.22.51,2.68.87,4.2.33Zm47.24-3.84c-2.55.76-5.11,1.29-6.44,3.94.62.04,1.15.16,1.66.1.87-.09,1.84-.11,2.56-.49,1.37-.71,1.96-2,2.22-3.55Zm-49.71.09c-.22-1.74-3.32-4.23-5.58-4.48-.11,3.46,2.64,4.74,5.58,4.48Zm51.33-4.56c-2.35,1.01-4.76,1.92-5.6,4.55.63.2,1.2.2,1.79-.02.73-.28,1.53-.4,2.22-.73.99-.49,1.83-2.61,1.59-3.8Zm-48.87-2.01c-2.18,1.83-2.78,4.73-1.2,6.09.28-.34.6-.65.84-1.01.35-.52.66-1.06.94-1.61.16-.31.31-.65.32-.98.05-.92-.26-1.75-.91-2.5Zm1.3,3.44c-1.87,2.22-2,5.13-.22,6.17.22-.36.49-.7.66-1.07.28-.61.49-1.25.73-1.87.07-.18.17-.37.16-.55-.07-1.03-.48-1.93-1.33-2.68Zm40.77,2.68c1.6-1.53.83-4.96-1.26-6.11-.19.32-.42.63-.55.97-.37.95-.54,1.89.21,2.78.3.35.45.81.7,1.19.26.39.57.75.9,1.17Zm-2.53-2.71c-.25.31-.48.56-.66.84-.58.89-.87,1.81-.3,2.83.22.4.31.86.51,1.28.2.43.46.85.7,1.28,1.8-1.19,1.66-4.06-.24-6.23Zm-1.92,3.08c-.26.33-.46.58-.67.83-.72.82-1.18,1.69-.76,2.8.14.36.12.76.22,1.13.14.51.33,1.01.5,1.54,2.11-1.03,2.28-3.84.71-6.29Zm-34.4.04c-1.62,2.44-1.25,5.39.76,6.24.16-.52.34-1.03.47-1.54.11-.44.12-.91.28-1.34.22-.58.15-1.13-.16-1.61-.38-.59-.85-1.12-1.35-1.75Zm32.24,2.99c-1.01.39-1.83,1.19-2.16,2.08-.05.14-.06.31-.06.46,0,.68,0,1.36,0,2.04,0,.16.04.38.15.47.45.34,1.34.21,1.68-.23,1.17-1.53.93-3.16.38-4.82Zm-30.13-.06c-.14.82-.35,1.56-.37,2.3-.04,1.08.28,2.07,1.1,2.89.44.43.89.13,1.3.04.13-.03.21-.43.23-.67.03-.61.02-1.22.01-1.83,0-.21.02-.43-.06-.62-.39-.94-1.1-1.61-2.21-2.11Zm11.58-41.04h6.81c-.07-1.13-.32-1.38-1.45-1.4-1.31-.02-2.63-.03-3.94,0-1.14.02-1.38.28-1.42,1.4Zm10.55,45.36v-14.98h-.17c-.01.19-.04.38-.04.57-.07,2.4-.16,4.81-.2,7.21-.03,2.25,0,4.49,0,6.74,0,.26-.05.58.4.46Zm10.93-10.15c-1.88,1.01-3.83,2.06-5.79,3.11,1.46-.06,2.88-.18,4.29-.35.27-.03.66-.25.74-.46.31-.75.51-1.54.75-2.29Zm-30.31,3.18s.03-.05.04-.08c-1.89-1.01-3.77-2.02-5.64-3.03.22.66.49,1.29.63,1.94.1.47.38.7.8.75,1.39.16,2.78.28,4.17.42Zm9.44-21.73c-.45-3.68-.27-7.32.6-11.06-1.62,3.31-1.74,8.29-.6,11.06Zm-17.19,30.21c0-.08,0-.15.01-.23.96.09,1.92.18,2.87.25.48.03.97,0,1.46,0v-.2c-1.76-.63-3.59-.5-5.61-.46.48.59.85,1.06,1.25,1.51.07.08.28.13.39.1.59-.15,1.16-.33,1.74-.51,0-.03,0-.07,0-.1-.71-.12-1.41-.25-2.12-.37Zm7.83-3.42c-.18.86-.15,1.68.06,2.5.02.07.27.09.43.13-.04-.64-.08-1.19-.12-1.73.28.43.4.87.58,1.29.05.12.26.26.39.26.42-.02.84-.1,1.25-.16.02-.95-.99-1.85-2.58-2.29Zm24.03.91s.1.02.15.03c-.05.43-.11.86-.13,1.3,0,.1.12.2.18.31.1-.08.27-.14.28-.23.06-.75.09-1.51.13-2.29-1.43.21-2.74,1.31-2.68,2.2.41.06.83.14,1.26.17.13,0,.33-.14.38-.26.17-.4.29-.81.44-1.22Zm9.48,1.97c-1.86-.11-3.61-.28-5.29.4.54.09,1.09.1,1.63.08.82-.03,1.64-.08,2.46-.13,0,.07.01.13.02.2-.57.1-1.15.2-1.72.29.52.25,1.04.4,1.56.53.1.02.27-.02.33-.09.35-.42.68-.86,1.02-1.29Zm-17.83-33.85c-.06,0-.12-.01-.18-.02-.22,1.26-.48,2.51-.64,3.77-.26,2,.72,3.66,2.78,4.72-.29-.29-.46-.48-.65-.65-1.31-1.23-1.82-2.68-1.58-4.41.16-1.13.19-2.27.27-3.41Zm-4.36-11.87c-.27.07-.71.08-.76.21-.14.39-.22.83-.15,1.23.04.24.76.11,1.14-.21.1-.08.2-.17.25-.28.1-.24.17-.49.25-.73-.24-.07-.48-.14-.73-.21Zm16.05,39.43c-.82.25-1.54.47-2.34.72,1.09.33,2.05.06,2.34-.72Zm-16.26-37.54s0,.09,0,.13c1.1.22,2.19.21,3.27-.13h-3.28Zm-13.95,37.58c.27.72,1.26,1.01,2.16.67-.73-.22-1.39-.43-2.16-.67Zm12.98-39.32c-.09-.02-.17-.04-.26-.06-.11.46-.22.92-.33,1.38.09.02.17.04.26.05.11-.46.23-.92.34-1.38Z"/><path class="cls-1" d="m89.4,76.48c-.69,0-1.22-.49-1.23-1.12,0-.64.55-1.19,1.22-1.2.67,0,1.28.55,1.27,1.16,0,.64-.57,1.15-1.27,1.15Z"/><path class="cls-1" d="m123.73,75.42c-.01-.65.53-1.16,1.23-1.17.69,0,1.25.51,1.25,1.16,0,.61-.56,1.14-1.21,1.16-.68.03-1.26-.5-1.27-1.15Z"/><path class="cls-1" d="m100.1,68.45c4.41-.62,9.21-.69,14.02,0h-14.02Z"/><path class="cls-1" d="m118.75,78.02c-3.76-.36-7.52-.71-11.29-1.07,3.83-.17,7.6.16,11.29,1.07Z"/><path class="cls-1" d="m95.35,78.03c3.27-.84,6.59-1.18,9.99-1.02-3.33.34-6.66.68-9.99,1.02Z"/><path class="cls-1" d="m89.92,70.26c2.51-.96,5.14-1.39,7.84-1.47-2.61.49-5.23.98-7.84,1.47Z"/><path class="cls-1" d="m116.98,68.89c2.53.02,4.96.51,7.33,1.28,0,.04-.02.09-.03.13-2.43-.47-4.87-.94-7.3-1.41Z"/><path class="cls-1" d="m125.18,87.34c1.05.53,2.11,1.06,3.16,1.58-.05.08-.09.17-.14.25-1.06-.53-2.12-1.06-3.18-1.59.05-.08.11-.16.16-.24Z"/><path class="cls-1" d="m128.46,88.54c-.46-.24-.93-.49-1.39-.73.05-.08.1-.17.15-.25.46.25.91.51,1.37.76-.04.07-.09.14-.13.22Z"/><path class="cls-1" d="m128.61,87.76c-.27-.15-.53-.3-.8-.45l.14-.22c.26.15.53.3.79.45-.05.07-.09.14-.14.21Z"/><path class="cls-1" d="m89.44,87.46c-.99.52-1.99,1.04-2.98,1.56-.03-.05-.06-.1-.09-.15.86-.74,1.86-1.25,3-1.52.02.04.05.08.07.12Z"/><path class="cls-1" d="m87.47,87.66c-.43.25-.86.49-1.3.74-.05-.08-.1-.15-.15-.23.43-.25.86-.5,1.29-.75.05.08.11.16.16.24Z"/><path class="cls-1" d="m132.01,50.25c-1.44,1.82-2.04,3.84-1.72,6.19-1.09-1.91-.22-4.93,1.72-6.19Z"/><path class="cls-1" d="m82.73,56.56c-1.89-.82-3.29-3.92-1.45-6.26-.83,2.32-.38,4.39,1.45,6.26Z"/><path class="cls-1" d="m83.46,64.97c1.81-.05,3.34.57,4.67,1.68-1.56-.56-3.11-1.12-4.67-1.68Z"/><path class="cls-1" d="m130.11,64.97c-1.56.56-3.12,1.13-4.69,1.69,1.32-1.14,2.86-1.74,4.69-1.69Z"/><path class="cls-1" d="m85.19,63.18c-1.46-.8-2.92-1.59-4.39-2.38,1.8.23,3.25,1.05,4.39,2.38Z"/><path class="cls-1" d="m132.65,60.83c-1.43.78-2.87,1.57-4.3,2.35,1.09-1.34,2.53-2.13,4.3-2.35Z"/><path class="cls-1" d="m79.02,56.4c1.7.47,2.98,1.42,3.83,2.87-1.28-.96-2.55-1.91-3.83-2.87Z"/><path class="cls-1" d="m134.49,56.42c-1.3.98-2.6,1.95-3.99,3,.95-1.56,2.26-2.54,3.99-3Z"/><path class="cls-1" d="m85.04,58.21c-.54-1.07-.07-2.89.99-3.75-.32,1.21-.67,2.54-.99,3.75Z"/><path class="cls-1" d="m87.47,57.96c-.12,1.25-.25,2.59-.36,3.81-.67-.74-.57-2.9.36-3.81Z"/><path class="cls-1" d="m127.49,54.43c1.06.92,1.51,2.62,1,3.79-.32-1.22-.68-2.56-1-3.79Z"/><path class="cls-1" d="m126.42,61.78c-.13-1.28-.26-2.64-.39-3.87.89.96,1.08,2.8.39,3.87Z"/><path class="cls-1" d="m123.99,60.96c.79,1.53.65,2.9-.36,4.27.13-.74.29-1.42.35-2.11.06-.69.01-1.39.01-2.16Z"/><path class="cls-1" d="m90,65.18c-1.04-.85-1.33-3.04-.36-4.23-.23,1.44-.19,2.82.36,4.23Z"/><path class="cls-1" d="m121.57,64.01c.5,1.17.02,2.92-1.01,3.68.33-1.19.68-2.49,1.01-3.68Z"/><path class="cls-1" d="m93.08,67.73c-1.16-.74-1.66-2.66-1.03-3.95.1.67.15,1.36.32,2.01.17.66.46,1.28.71,1.94Z"/><path class="cls-1" d="m108.28,21.46c-.13-.14-.26-.28-.43-.45-.13.13-.24.24-.35.35-.04-.03-.08-.07-.12-.1.15-.14.38-.43.43-.4.23.12.4.32.6.5-.04.04-.08.07-.12.11Z"/><path class="cls-1" d="m106.1,21.23c.18-.14.36-.4.53-.4.18,0,.36.26.49.49-.34-.37-.63-.43-.92.11-.04-.07-.07-.13-.11-.2Z"/></g><text/><path class="cls-2" d="m153.65,74.64c-.36,0-.71-.03-1.04-.06-.05.33-.03.69.22,1.18-1.95.25-1.15,1.89-3.02,1.89-1.98,0-1.76-1.86-.82-2.03.9-.17,1.45.96.63,1.45.88.14,1.4-1.13,1.7-2.66-5.4-1.07-6.06-5.32-9.4-4.47.33,1.89-2.63,1.12-1.26-.55.88-1.07,3.4-1.21,5.48.9-2.52-2.72-1.7-9.95,4.31-10.97v-.17c0-.82-.63-1.26-1.4-.77-.06-.38.52-1.32,1.15-.74-.38-.47-.14-1.65.25-1.87v-8.31c-.11-.25-.11-.6,0-.9v-1.43h-.11c-.52,0-.99-.44-.99-.96,0-.55.47-.99.99-.99s.69.33.69,1.18v1.59c.11-.06.25-.11.41-.11.82-.06,1.18.16,1.56.74-.58-1.51,1.67-1.67.71-3.65,1.95-.25,1.15-1.89,3.01-1.89,1.98,0,1.76,1.87.82,2.03-.9.17-1.45-.96-.63-1.45-1.64-.25-2.08,4.5-2.11,6.72v5.24c.25-.03.49-.03.74-.03.17,0,.33-.03.49-.06.11-.03.22-.05.33-.05,2.82-.61,4.47-2.66,4.93-5.02-1.95.6-3.02-1.78-1.45-2.36-.47.49-.06,1.51.85,1.07.88-.44.69-1.59.36-2.58v-.03c-.93-2.82-3.57-5.24-7.9-5.24-3.4,0-5.87.96-7.51,2.36v.03c-.99,1.07-.88,2-.08,2.61.79.58,1.37-.36,1.01-.91,1.45.85-.11,3.1-2,1.98-.52-.3-.82-.74-.96-1.23-1.65,3.24-.6,6.99,2.22,7.29,3.45.38,2.82-3.59.74-3.43-1.18.08-1.01,1.18-.6,1.67-2.44.47-2.47-3.89,1.21-3.92,3.87-.03,4.44,6.88-1.13,6.64-7.16-.33-6.77-14.01,7.02-14.01,11.9,0,15.49,12.81,5.29,15.55,11.85,2.72,12.31,20.98-4.72,20.71Zm-3.21-13.88c-5.76,1.32-5.4,10.81,1.07,12.51.17-1.07.22-2.14.22-2.91v-1.13c-4.39-.22-4.69-4.77-2.03-5.35-.57.8-.88,2.88,1.56,2.88,5.18,0,4.64-6.03.8-6.14-.36,0-.71,0-1.04.06v.96c0,1.59,0,3.46-1.21,4.14.6-.96.63-3.48.63-4.09v-.93Zm.58-1.51c.22-.03.47-.06.71-.06v-11.41c0-.63-.36-.85-.71-.77v12.23Zm12.29,7.46c-2.08.36-2.8-2.22-1.13-2.55-.55.41-.33,1.48.63,1.18.96-.25.96-1.42.82-2.44l.03-.03c-.3-3.32-2.11-6.44-5.27-7.73-.99-.3-2.14-.44-2.58.44-.41.91.6,1.32,1.1.82-.38,1.04-1.53.93-2.11.19v3.24c3.67,1.81,3.76,7.19,0,8.88v2.22c0,.99.9.99,1.29.3.27.58-.08,1.56-.99,1.62-.82.06-1.18-.16-1.54-.71h-.03c.22.6,0,.99-.3,1.37h.38c5.48,0,8.64-3.1,9.68-6.8Z"/><path class="cls-2" d="m184.08,75.88c-2.03.27-5.13-.88-8.17-4.66-.03-.06-.08-.08-.11-.14-5.57,2.44-11.35,7.05-9.54,9.35.52.66,1.23.38,1.32-.3,1.34,1.43-1.18,2.66-2.44,1.43-3.07-2.99,3.65-8.42,10.12-11.14-1.65-1.97-2.74-2.85-3.89-2.85-1.86,0-1.86,2.3-.85,2.39-.27-.55.8-1.1,1.15-.25.63,1.51-2.28,1.97-2.96.17-.36-.99.27-2.33,1.56-2.96h-.06v-2.93c-.11-.27-.38-.44-.71-.44-.38-.03-.47.55-.14.69-.91.03-.77-1.56.27-1.59.22,0,.41.06.58.17v-4.8c-.22-.38-.74-.74-1.1-.93.38-.16.82-.52,1.1-.93v-6.83c0-1.1-1.65-1.62-1.65-1.62v-.47c1.15.25,3.81.19,7.46.06,7.82-.27,8.67,9.54,1.43,10.75,3.45,2.47,4.63,9.41,6.77,8.26,0,.71-.14,1.43-1.18,1.59-.9.14-1.62-.33-2.17-1.26-1.78,1.07-2.41-1.26-3.57-5.24-.74-2.58-1.04-3.29-2.38-3.24-1.1.06-.74,1.13.03.66.19.69-1.04,1.15-1.51.55-.05-.06-.11-.19-.16-.36v7.84c1.18.38,2.52,1.26,3.98,2.85,1.42-.49,2.8-.79,4-.88,6.64-.47,8.5,6.31,2.82,7.07Zm-10.81-26.57v7.87s1.67-.03,2.58-.03c5.1-.03,4-8.99.36-8.99-1.81,0-2.11,1.4-.96,1.81-1.01.55-1.97-.06-1.97-.66Zm8.03,20.21c-1.04.08-2.25.36-3.51.79.93,1.07,1.81,2,2.66,2.74-.11-.38-.05-.77.25-1.01.69-.55,1.54.14.9.63-.71-.36-.71.63-.16,1.15,1.01.69,2.03,1.04,3.04.93,3.87-.41,2.28-5.65-3.18-5.24Z"/><path class="cls-2" d="m198.51,66.47l-.08.44c-1.59-.6-11.38-.46-12.83-.14v-.47s1.65-.38,1.65-1.65v-.88c-.11-.33-.38-.52-.74-.52-.38-.03-.47.55-.14.69-.9.03-.77-1.56.27-1.59.22,0,.44.05.6.16v-4.52c-.22-.38-.74-.74-1.1-.93.38-.16.82-.52,1.1-.93v-6.75c0-1.26-1.65-1.65-1.65-1.65v-.47c1.45.33,11.24.47,12.83-.14l.08.44c-.88.9-3.4,7.62-2.03,7.62-.25-.33.14-.88.71-.69s.61,1.54-.9,1.34c-1.56-.19-.96-2.99-.79-4.22-.77.44-1.56-.22-1.56-.91,1.7-.16,1.18-2.14-.71-2.28-1.89-.14-2.91.17-2.91.93v7.29c.63-.79,2.22-1.51,3.4-1.37,1.34.17,2.22,1.4,1.81,2.63-.38,1.15-1.78,1.51-2.77.63,1.07-.49.88-1.45.58-1.86-.82-1.02-2.19-.03-3.02.88v7.07c0,.77,1.01,1.07,2.91.93,1.89-.14,2.11-1.67.96-1.67,0-.69.8-1.32,1.57-.88-.63-2.33-.11-4.66,1.45-4.85,1.51-.19,1.48,1.15.91,1.34s-.96-.36-.71-.69c-1.37,0-.33,6.28,1.13,7.62Z"/><path class="cls-2" d="m219.88,47.44c1.48.16,2.99.16,4.47,0l-.03.46s-1.45.08-1.98,1.23l-1.81,6.77c.11.44.49.93.77,1.18-.38.05-.88.27-1.26.58l-2,7.48c.49.85,1.62,1.13,1.62,1.13l.05.47c-2.14-.25-4.28-.3-6.36,0l-.05-.47s1.78-.38,1.48-1.56l-2.96-10.28-2.88,10.72c.49.85,1.62,1.13,1.62,1.13l.06.47c-2.14-.25-4.28-.3-6.36,0l-.06-.47s1.62-.36,1.51-1.4c0-.03,0-.08-.03-.11v-.11l-.05-.11c-.17-.52-.58-.69-1.02-.49-.38.08-.25.66.11.69-.85.33-1.26-1.21-.27-1.62.27-.11.55-.08.79.03l-1.56-5.43c-.38-.36-.9-.58-1.32-.63.3-.27.69-.74.8-1.21l-1.95-6.75h-.03c-.22-.9-1.78-1.29-1.78-1.29l-.06-.47c.71.08,1.43.14,2.14.17h2.11c.71-.03,1.43-.08,2.14-.17l.06.47s-1.73.38-1.51,1.29l1.7,5.98c.69,1.02,1.95.58,1.81-.46.99.46,1.15,2.28-.41,2.55-.3.05-.58.03-.82-.08l1.7,5.87,2.91-10.83-.85-3.02h-.03c-.22-.9-1.78-1.29-1.78-1.29l-.05-.47c.71.08,1.42.14,2.14.17h2.11c.71-.03,1.43-.08,2.14-.17l.06.47s-1.73.38-1.51,1.29l1.56,5.43c.82,1.48,2.36.79,2-.33,1.04.27,1.54,2.03.03,2.58-.52.19-1.01.05-1.45-.25l1.84,6.42,3.76-13.93c.16-1.1-1.29-1.15-1.29-1.15l.05-.46Z"/><path class="cls-2" d="m31.05,59.37c-.27,8.49-4.98,16.58-14.44,16.58-.35,0-.68,0-1-.03-.08.33-.08.73.19,1.27-1.92.24-1.14,1.87-2.98,1.87-1.95,0-1.73-1.84-.81-2,.89-.16,1.43.95.62,1.43.87.14,1.41-1.16,1.7-2.73-5.33-.92-5.98-5-9.3-4.17.59.87-.73,1.89-1.49,1-.38-.46-.33-1.22.24-1.7,1.03-.87,3.35-1.3,5.41.78-2.98-3.22-1.78-9.82,4.14-10.82v-.16c0-.81-.62-1.24-1.38-.76-.06-.38.51-1.3,1.14-.73-.38-.46-.14-1.62.24-1.84v-10.49h-.11c-.51,0-.97-.43-.97-.94,0-1.33,1.65-1.41,1.65.19v1.41c.16-.08.33-.16.54-.16.81-.05,1.16.16,1.54.73-.57-1.49,1.65-1.65.7-3.6,1.92-.24,1.14-1.87,2.98-1.87,1.95,0,1.73,1.84.81,2-.89.16-1.43-.95-.62-1.43-1.73-.27-2.11,5.08-2.08,7.03h-.03v11.12c3.41,1.76,3.27,6.76,0,8.6v2.49c0,.97.89.97,1.27.3.27.57-.08,1.54-.97,1.6-.81.05-1.16-.16-1.54-.73.22.54.06.89-.19,1.24h.27c4.6,0,7.74-3.11,9.47-7.44-.14,0-.3,0-.43-.03-2.14-.33-1.89-3-.24-2.76-.65.19-.81,1.27.19,1.3.62.08,1-.35,1.27-.92,1.27-4.92.97-10.82-.81-15.47-.22.22-.46.41-.81.54-2.03.76-3.16-1.68-1.6-2.27-.46.49-.05,1.49.84,1.05.54-.27.68-.84.62-1.43-1.92-3.6-4.92-6.06-8.95-6.06-3.76,0-6.3,1.14-7.87,2.7-.43.81-.24,1.49.38,1.98.79.57,1.35-.35,1-.89,1.43.84-.11,3.06-1.98,1.95-.41-.24-.68-.57-.84-.95-1.35,3.03-.27,6.38,2.08,6.71,3.41.46,2.79-3.33.73-3.16-1.16.08-1,1.16-.59,1.65-2.41.46-2.44-3.84,1.19-3.87,3.81-.03,4.38,6.79-1.11,6.54-7.06-.33-6.68-13.82,6.92-13.82,9.55,0,14.66,8.65,15.01,17.47.27.38.68.7,1.03.87-.35.16-.78.49-1.03.84Zm-17.72,2.87c-5.52,1.22-5.16,10.66,1.19,12.36.13-1,.19-2,.19-2.73v-1.24c-4.33-.13-4.62-4.71-2-5.27-.57.79-.87,2.84,1.54,2.84,5.11,0,4.68-5.79.78-6.06-.41-.03-.78-.03-1.14.03v.97c0,1.57,0,3.41-1.19,4.09.59-.95.62-3.44.62-4.03v-.95Zm.57-1.46c.27-.03.54-.06.81-.06v-10.82h.03v-.65c0-.68-.43-.89-.84-.7v12.22Z"/><path class="cls-2" d="m48.13,75.92c-4.38-.46-8.09-8.06-10.95-8.09-1.89-.03-2.62,1.38-1.41,2.41-.33-.49.76-1.13,1.14-.3.68,1.49-1.84,2.51-2.92.35-.62-1.19-.05-2.76,1.35-3.44v-1.62c-.11-.32-.38-.51-.73-.51-.38-.03-.46.54-.14.68-.89.03-.76-1.54.27-1.57.22,0,.43.05.59.16v-4.46c-.22-.38-.73-.73-1.08-.92.38-.16.81-.51,1.08-.92v-6.65c0-1.24-1.62-1.62-1.62-1.62v-.46c1.43.32,11.09.46,12.66-.13l.08.43c-.87.89-3.35,7.52-2,7.52-.24-.32.13-.87.7-.68s.6,1.52-.89,1.33c-1.54-.19-.95-2.95-.78-4.16-.76.43-1.54-.22-1.54-.89,1.68-.16,1.16-2.11-.7-2.24-1.87-.13-2.87.16-2.87.92v7.19c.62-.78,2.19-1.49,3.35-1.35,1.32.16,2.19,1.38,1.78,2.6-.38,1.14-1.76,1.49-2.73.62,1.05-.49.87-1.43.57-1.84-.81-1-2.16-.03-2.98.87v7.73c1.19.46,2.27,1.41,3.3,2.46h.03c.57.51,1.11.41,1.38-.03.22-.35-.22-.49-.52-.49.7-.81,1.7.14,1.24,1.05-.24.41-.68.54-1.13.52,1.68,1.81,3.33,3.62,5.38,3.87,3.98.46,4.52-4.95,1.22-4.73-1.22.08-1.54,1.7-.3,2.33.73.38,1.24-.38.92-.84,1.22.68.76,2.44-.76,2.44-3.16,0-3.22-4.36-.19-4.71,5.38-.62,5.79,7.87-.81,7.19Z"/><path class="cls-2" d="m59.82,49.53s-1.62.38-1.62,1.54v6.65c.27.41.7.73,1.05.89-.35.16-.81.52-1.05.89v.03c0,2.73.41,8.68-5.65,8.79-6.52.11-6.25-6.9-1.65-7.03,3.11-.08,3.41,3.46,1.41,3.98.19-.6,0-1.7-1.19-1.7-2.08,0-1.68,4.22,1.22,4.08,2.76-.13,2.84-3.24,2.84-8.11-.22-.38-.73-.73-1.08-.92.38-.16.81-.51,1.08-.92v-6.63c0-1.16-1.62-1.54-1.62-1.54v-.46c2.08.3,4.19.24,6.27,0v.46Z"/><path class="cls-2" d="m70.51,68c-.7.03-1.41.08-2.11.16l-.06-.46s1.7-.38,1.49-1.27l-1.38-4.79-4.95.03-1.3,4.84c-.16,1.08,1.27,1.13,1.27,1.13l-.06.46c-1.46-.16-2.95-.16-4.41,0l.03-.46s1.43-.08,1.95-1.22l1.79-6.68c-.11-.43-.49-.92-.76-1.16.38-.05.87-.27,1.24-.57l1.97-7.38c-.49-.84-1.59-1.11-1.59-1.11l-.06-.46c2.11.24,4.22.3,6.27,0l.06.46s-1.76.38-1.46,1.54l1.97,6.9c.38.35.89.57,1.3.62-.3.27-.68.73-.79,1.19l1.92,6.65h.03c.22.89,1.76,1.27,1.76,1.27l.06.46c-.7-.08-1.41-.14-2.11-.16h-2.08Zm-6.65-7.6l4.25-.03-2.19-7.6-2.05,7.63Z"/><polygon class="cls-1" points="94.98 76.42 94.36 74.6 92.5 74.08 94.04 72.92 93.97 71 95.54 72.11 97.34 71.44 96.78 73.28 97.97 74.79 96.04 74.82 94.98 76.42"/><polygon class="cls-1" points="100.62 75.43 100.12 73.57 98.3 72.93 99.92 71.88 99.97 69.96 101.46 71.17 103.31 70.62 102.62 72.42 103.71 74 101.79 73.9 100.62 75.43"/><polygon class="cls-1" points="119.37 76.62 118.27 75.04 116.35 75.05 117.51 73.52 116.91 71.69 118.73 72.33 120.28 71.19 120.24 73.11 121.8 74.24 119.96 74.79 119.37 76.62"/><polygon class="cls-1" points="113.53 75.56 112.43 73.98 110.51 73.99 111.68 72.46 111.08 70.63 112.89 71.26 114.45 70.13 114.4 72.05 115.96 73.18 114.12 73.73 113.53 75.56"/></svg>